<?xml version="1.0" encoding="UTF-8" standalone="no"?>
<!-- Created with Inkscape (http://www.inkscape.org/) -->

<svg
   width="24.0px"
   height="24.0px"
   viewBox="0 0 24.0 24.0"
   version="1.1"
   id="SVGRoot"
   sodipodi:docname="body.svg"
   xml:space="preserve"
   inkscape:version="1.2.2 (732a01da63, 2022-12-09)"
   xmlns:inkscape="http://www.inkscape.org/namespaces/inkscape"
   xmlns:sodipodi="http://sodipodi.sourceforge.net/DTD/sodipodi-0.dtd"
   xmlns="http://www.w3.org/2000/svg"
   xmlns:svg="http://www.w3.org/2000/svg"><sodipodi:namedview
     id="namedview253"
     pagecolor="#ffffff"
     bordercolor="#000000"
     borderopacity="0.25"
     inkscape:showpageshadow="2"
     inkscape:pageopacity="0.0"
     inkscape:pagecheckerboard="0"
     inkscape:deskcolor="#d1d1d1"
     inkscape:document-units="px"
     showgrid="true"
     inkscape:zoom="22.627417"
     inkscape:cx="-14.937631"
     inkscape:cy="13.611806"
     inkscape:window-width="1280"
     inkscape:window-height="1001"
     inkscape:window-x="1912"
     inkscape:window-y="56"
     inkscape:window-maximized="1"
     inkscape:current-layer="layer1"><inkscape:grid
       type="xygrid"
       id="grid376" /></sodipodi:namedview><defs
     id="defs248" /><g
     inkscape:groupmode="layer"
     id="layer2"
     inkscape:label="background"
     sodipodi:insensitive="true"><rect
       style="fill:none;fill-opacity:1;stroke:#000000;stroke-width:1.5;stroke-dasharray:none;stroke-opacity:1"
       id="rect5828"
       width="19.233932"
       height="19.759449"
       x="-24.699312"
       y="3.0480001" /><path
       style="fill:none;fill-opacity:1;stroke:#000000;stroke-width:1.5;stroke-dasharray:none;stroke-opacity:1"
       id="path5575"
       sodipodi:type="arc"
       sodipodi:cx="-15.042545"
       sodipodi:cy="11.648451"
       sodipodi:rx="11.56138"
       sodipodi:ry="12.192"
       sodipodi:start="0"
       sodipodi:end="6.2799133"
       sodipodi:open="true"
       sodipodi:arc-type="arc"
       d="M -3.4811649,11.648451 A 11.56138,12.192 0 0 1 -15.033088,23.840447 11.56138,12.192 0 0 1 -26.60391,11.668397 11.56138,12.192 0 0 1 -15.070917,-0.54351283 11.56138,12.192 0 0 1 -3.4812268,11.608559" /><path
       style="fill:#f90202;fill-opacity:1;stroke:none;stroke-width:0.1"
       id="path601"
       sodipodi:type="arc"
       sodipodi:cx="12.039737"
       sodipodi:cy="12.039737"
       sodipodi:rx="11.816779"
       sodipodi:ry="11.816779"
       sodipodi:start="0"
       sodipodi:end="6.2799133"
       sodipodi:open="true"
       sodipodi:arc-type="arc"
       d="M 23.856516,12.039737 A 11.816779,11.816779 0 0 1 12.049403,23.856512 11.816779,11.816779 0 0 1 0.22297342,12.059069 11.816779,11.816779 0 0 1 12.010738,0.22299319 11.816779,11.816779 0 0 1 23.856453,12.001072" /></g><g
     inkscape:label="Ebene 1"
     inkscape:groupmode="layer"
     id="layer1"><path
       id="path451"
       style="fill:none;fill-opacity:1;stroke:#bb0f0f;stroke-width:0.6;stroke-dasharray:none;stroke-opacity:1"
       d="m -13.48058,21.728306 c -1.156635,-1.66314 0.635185,-5.478296 -1.109375,-7.242188 -0.561721,2.331363 -1.255825,5.890179 -0.09375,8.138672 h 0.09375 c -0.140862,-1.656371 -0.824023,-3.702147 0,-5.271484 l 0.460938,5.457031 1.757812,-0.371094 c -0.405159,-0.09666 -0.705427,-0.266629 -0.929687,-0.492187 l -0.179688,-0.21875 c -0.0023,-1.839561 -0.06083,-3.793968 0.369141,-5.578125 0.933716,1.195307 1.574028,2.51405 2.378906,3.792968 0.389907,0.719457 0.398054,1.460842 0.724606,2.113286 0.6350285,-0.352131 1.6770242,-0.967467 2.2441409,-1.427735 -0.013129,-0.02654 -0.036093,-0.0879 -0.1054687,-0.208984 -0.1284633,0.06462 -0.2617633,0.126402 -0.4042969,0.18164 -1.2281002,0.476047 -1.3394426,-1.765873 -1.6308594,-2.416015 -0.9179929,-2.048344 -4.0634649,-5.343383 -3.3359369,-7.861328 0.13155,-0.4555951 0.416263,-1.3968845 0.882812,-1.5996101 1.142467,-0.4964551 2.5837526,0.030031 3.7792968,-0.2050782 0.6488129,-0.1270441 2.1382339,-0.3056445 2.6542969,-0.6894531 0.4577022,-0.3403382 0.3171877,-1.075445 -0.2539063,-1.1757812 -0.6705092,-0.1177705 -1.2842049,0.3709354 -1.9394531,0.3925781 -0.6133556,0.020348 -1.2329228,0.02149 -1.8496094,0.039063 v -0.091797 c 1.1114766,-0.2534039 2.309298,-1.0487009 3.2089844,-1.7382812 0.3816814,-0.2925457 0.6428882,-0.9422191 0.083984,-1.2246094 -0.1903355,-0.096167 -0.3880439,-0.077668 -0.5820313,-0.00586 -0.047277,0.074039 -0.1399708,0.1393312 -0.2832031,0.1738282 -0.025143,0.00606 -0.050828,0.010406 -0.076172,0.015625 -0.2202514,0.1458013 -0.4252671,0.321501 -0.59375,0.4394531 -1.2010002,0.8409276 -3.1659619,0.9174322 -4.1621099,1.96875 1.285734,0.016047 2.7495196,-0.772453 3.8847662,-1.3222657 0.3981444,-0.1928292 1.0314271,-0.8879117 1.4921875,-0.8144531 0.464084,0.074001 -0.391119,0.6573548 -0.4785156,0.7070313 -0.966456,0.5497693 -1.8624783,1.1255894 -2.8632821,1.6152344 v 0.091797 l 0.185547,0.2792969 c -0.866504,-0.126186 -3.174486,-0.00874 -3.79676,-0.5876851 -0.703878,-0.6547919 1.030094,-3.1386647 -0.921875,-3.1386709 -1.951969,0 -0.216043,2.48388 -0.919921,3.1386719 -0.638737,0.5942664 -2.917572,0.465255 -3.796876,0.5878906 l 0.185547,-0.2792969 v -0.091797 c -0.980517,-0.5172284 -1.90279,-1.0738895 -2.865234,-1.625 -0.08616,-0.049334 -0.939329,-0.6217354 -0.476563,-0.6972657 0.465753,-0.076018 1.094369,0.6161654 1.492188,0.8125 1.127391,0.556435 2.603748,1.3402104 3.884766,1.3242188 V 6.4394531 c -1.276023,-0.6424843 -2.754185,-0.9075505 -3.976563,-1.6796875 -0.446257,-0.2819278 -1.050973,-0.965027 -1.642578,-0.7617187 -0.642086,0.2206595 -0.4,0.9497007 0.0039,1.2578125 0.914885,0.6971367 2.156836,1.5453595 3.302735,1.7382812 v 0.091797 c -0.61432,0 -1.236233,0.028799 -1.84961,-0.00586 -0.652084,-0.036719 -1.288369,-0.491107 -1.941406,-0.4257812 -0.64794,0.064808 -0.83023,0.9029587 -0.263672,1.2265625 0.717077,0.4096134 2.295837,0.6028878 3.128906,0.7226562 1.058116,0.1521399 2.378417,-0.354736 3.396485,0.1210938 0.428443,0.2002284 0.64003,1.174907 0.75,1.5996101 0.663738,2.562803 -2.471256,5.67863 -3.359375,7.767577 -0.305957,0.719787 -0.396532,3.011697 -1.710938,2.46875 -0.15094,-0.06235 -0.291259,-0.130355 -0.425781,-0.203125 -0.01657,0.0036 -0.03036,0.0074 -0.03516,0.02734 -0.0012,0.005 -0.0022,0.0086 -0.002,0.01367 10e-5,0.0017 0.0052,0.0028 0.0039,0.0039 -0.0031,0.0026 -0.0078,0.0029 -0.01172,0.0039 -0.05802,0.0038 -0.02699,0.0051 -0.09961,-0.0059 -0.0057,-8.58e-4 -0.0081,-0.002 -0.0098,-0.002 h -0.002 c -0.0012,3.46e-4 -0.0027,-4.19e-4 -0.0039,0 -0.0083,0.0028 0.01733,0.02737 0.0059,0.02734 -0.01002,-0.0068 -0.03909,-0.0047 -0.06836,-0.002 -0.01351,0.02222 -0.02748,0.0442 -0.04102,0.06641 0.722198,0.596385 1.471144,1.248792 2.311332,1.66054 0.919987,-1.822966 1.665226,-4.101966 3.003124,-5.537533 0.23437,1.086325 0.0079,2.075288 0.126953,3.144531 0.282899,1.710982 0.511434,2.138458 -0.08008,3.484397 h 5e-6 c 2.175496,0.06367 3.05205,0.01788 4.849647,-0.583975 -0.01733,-0.03953 -0.03152,-0.07452 -0.05469,-0.125 0.426833,-0.356622 -1.036802,-0.513944 -1.240282,-0.585985 M -14.947266,3.875 c 0.938156,-0.09077 0.90848,1.8383083 0.152344,1.96875 -0.82985,0.1431591 -1.027144,-1.8841094 -0.152344,-1.96875 z m -0.199218,2.4707031 h 0.55664 c 0.576029,1.5746414 4.8823774,1.172595 6.2890628,1.1015625 0.2959498,-0.014891 2.1319208,-0.6416019 2.1386718,-0.1542968 0.0066,0.4738875 -1.1923537,0.4488368 -1.4921875,0.5292968 -1.2784078,0.3432122 -4.1043511,-0.1275478 -5.0878911,0.6738282 -2.860066,2.3303472 1.200289,7.3842522 2.314454,9.5039062 0.6110175,1.162722 0.406446,2.349873 1.6640621,3.052734 l -0.9257812,0.462891 c -0.9748749,-2.130475 -2.0536069,-4.337371 -3.6328129,-6.105469 -0.291095,-0.325871 -1.08202,-1.52539 -1.546875,-1.52539 -0.474041,0 -1.252212,1.19582 -1.548828,1.52539 -1.543071,1.714796 -2.776488,3.978231 -3.628906,6.105469 l -0.925781,-0.462891 c 1.235697,-0.78601 1.027942,-1.954432 1.685547,-3.144531 1.186984,-2.148049 3.191286,-4.588159 3.203125,-7.214844 0.0037,-0.8087506 -0.471151,-1.6155916 -0.634766,-2.4042965 -0.931867,-0.00277 -1.839565,-0.1090279 -2.773438,-0.095703 -0.625725,0.00888 -1.24391,0.017702 -1.849609,-0.1601563 -0.311294,-0.09138 -2.37151,-0.3619086 -2.234375,-0.7949219 0.145117,-0.4582845 1.709851,0.1756677 2.048828,0.1875 1.41781,0.049852 5.795583,0.5197209 6.38086,-1.0800782 z m 0.09375,8.1406249 c 0,2.931005 -0.983198,5.391178 0,8.324219 l -1.111328,-0.09375 c 1.033819,-2.854979 -1.838361,-5.851751 1.111328,-8.230469 z"
       sodipodi:nodetypes="ccccccccccccccccccccccccsscccccccccccccccccssccccsccccccccccscscccssccccccccccccccscccccsccccscccccccccccccccc" /></g></svg>
