<?xml version="1.0" encoding="UTF-8" standalone="no"?>
<!-- Created with Inkscape (http://www.inkscape.org/) -->

<svg
   width="24.0px"
   height="24.0px"
   viewBox="0 0 24.0 24.0"
   version="1.1"
   id="SVGRoot"
   sodipodi:docname="body.svg"
   xml:space="preserve"
   inkscape:version="1.2.2 (732a01da63, 2022-12-09)"
   xmlns:inkscape="http://www.inkscape.org/namespaces/inkscape"
   xmlns:sodipodi="http://sodipodi.sourceforge.net/DTD/sodipodi-0.dtd"
   xmlns="http://www.w3.org/2000/svg"
   xmlns:svg="http://www.w3.org/2000/svg"><sodipodi:namedview
     id="namedview253"
     pagecolor="#ffffff"
     bordercolor="#000000"
     borderopacity="0.25"
     inkscape:showpageshadow="2"
     inkscape:pageopacity="0.0"
     inkscape:pagecheckerboard="0"
     inkscape:deskcolor="#d1d1d1"
     inkscape:document-units="px"
     showgrid="true"
     inkscape:zoom="11.313709"
     inkscape:cx="2.7400388"
     inkscape:cy="17.67767"
     inkscape:window-width="1280"
     inkscape:window-height="1001"
     inkscape:window-x="1912"
     inkscape:window-y="56"
     inkscape:window-maximized="1"
     inkscape:current-layer="layer2"><inkscape:grid
       type="xygrid"
       id="grid376" /></sodipodi:namedview><defs
     id="defs248" /><g
     inkscape:groupmode="layer"
     id="layer2"
     inkscape:label="background"><path
       style="fill:none;fill-opacity:1;stroke:#ea0303;stroke-width:1.5;stroke-dasharray:none;stroke-opacity:1"
       id="path5575"
       sodipodi:type="arc"
       sodipodi:cx="12.358871"
       sodipodi:cy="12.134587"
       sodipodi:rx="10.678525"
       sodipodi:ry="11.263923"
       sodipodi:start="0"
       sodipodi:end="6.2799133"
       sodipodi:open="true"
       sodipodi:arc-type="arc"
       d="M 23.037396,12.134587 A 10.678525,11.263923 0 0 1 12.367607,23.398506 10.678525,11.263923 0 0 1 1.6803608,12.153015 10.678525,11.263923 0 0 1 12.332666,0.87069851 10.678525,11.263923 0 0 1 23.037339,12.097732" /><rect
       style="fill:none;fill-opacity:1;stroke:#000000;stroke-width:1.5;stroke-dasharray:none;stroke-opacity:1"
       id="rect5828"
       width="17.765182"
       height="18.255323"
       x="3.439518"
       y="4.1888185" /></g><g
     inkscape:label="Ebene 1"
     inkscape:groupmode="layer"
     id="layer1"><path
       id="path451"
       style="fill:none;fill-opacity:1;stroke:#000000;stroke-width:0.6;stroke-dasharray:none;stroke-opacity:1"
       d="m 13.801561,21.447144 c -1.068312,-1.536538 0.586681,-5.061277 -1.024661,-6.690899 -0.518826,2.153896 -1.159927,5.441808 -0.08659,7.519141 h 0.08659 c -0.130105,-1.530285 -0.761098,-3.420332 0,-4.870208 l 0.42574,5.041631 1.623581,-0.342845 c -0.37422,-0.0893 -0.651559,-0.246333 -0.858694,-0.454721 l -0.165966,-0.202099 c -0.0021,-1.69953 -0.05618,-3.505164 0.340952,-5.153507 0.862415,1.104318 1.453832,2.322676 2.197247,3.50424 0.360133,0.664691 0.367658,1.34964 0.669274,1.952419 0.586535,-0.325326 1.548962,-0.893822 2.072772,-1.319053 -0.01213,-0.02452 -0.03333,-0.08121 -0.09741,-0.193076 -0.118653,0.0597 -0.241774,0.11678 -0.373424,0.167813 -1.134319,0.439809 -1.237159,-1.631451 -1.506322,-2.232103 -0.847893,-1.892421 -3.753169,-4.936635 -3.081197,-7.262909 0.121505,-0.420915 0.384476,-1.2905514 0.815398,-1.4778452 1.055226,-0.458664 2.386451,0.027745 3.490701,-0.1894672 0.599267,-0.1173733 1.974952,-0.2823783 2.451607,-0.6369707 0.422752,-0.314431 0.292967,-0.9935801 -0.234517,-1.0862786 -0.619307,-0.1088055 -1.18614,0.3426992 -1.791351,0.3626944 -0.566519,0.018799 -1.138774,0.019854 -1.708369,0.036089 v -0.084809 c 1.026601,-0.2341143 2.132955,-0.9688719 2.963938,-1.60596 0.352535,-0.2702766 0.593796,-0.8704957 0.07757,-1.1313899 -0.175801,-0.088847 -0.358412,-0.071756 -0.537586,-0.00541 -0.04367,0.068403 -0.129283,0.128725 -0.261577,0.1605961 -0.02322,0.0056 -0.04695,0.00961 -0.07035,0.014436 -0.203433,0.1347027 -0.392792,0.2970278 -0.548409,0.4060012 -1.10929,0.7769146 -2.924202,0.8475955 -3.844281,1.8188851 1.187552,0.014825 2.539559,-0.7136525 3.588115,-1.2216124 0.367741,-0.1781507 0.952665,-0.8203222 1.37824,-0.7524554 0.428646,0.068368 -0.361252,0.6073157 -0.441974,0.6532107 -0.892655,0.5079199 -1.720255,1.0399075 -2.644635,1.4922798 v 0.084809 l 0.171378,0.2580363 c -0.800335,-0.1165804 -2.932074,-0.00807 -3.50683,-0.5429494 -0.650128,-0.6049479 0.951434,-2.8997437 -0.851478,-2.8997494 -1.802912,0 -0.199545,2.2948024 -0.849674,2.8997503 C 11.079396,8.0118845 8.9745786,7.8926937 8.1624205,8.005994 L 8.3337986,7.7479577 V 7.6631485 C 7.4281563,7.1852925 6.5763104,6.6710054 5.687361,6.1618465 5.6077804,6.1162679 4.8197615,5.5874387 5.2471895,5.5176579 5.6773765,5.4474266 6.2579898,6.0869197 6.6254303,6.2683089 7.666731,6.7823871 9.0303497,7.5065 10.213546,7.4917258 V 7.3221076 C 9.0349651,6.7285304 7.6696792,6.4836416 6.540645,5.7702811 6.1284653,5.5098141 5.5699269,4.8787137 5.0234983,5.0665458 c -0.5930547,0.2038625 -0.369455,0.8774077 0.0036,1.1620655 0.8450222,0.6440693 1.9921347,1.4277239 3.05053,1.60596 v 0.084809 c -0.567409,0 -1.1418312,0.026607 -1.7083692,-0.00541 C 5.7669721,7.8800427 5.1792754,7.4602436 4.5761059,7.5205967 3.9776442,7.5804714 3.8092743,8.3548205 4.3325685,8.653791 4.9948878,9.0322238 6.4530897,9.2107858 7.2225435,9.3214372 8.1998592,9.461996 9.4193387,8.9937044 10.359665,9.4333131 c 0.395726,0.1849867 0.591156,1.0854709 0.692728,1.4778449 0.613054,2.367717 -2.2825451,5.246362 -3.1028451,7.176294 -0.2825934,0.664996 -0.3662519,2.782441 -1.5802866,2.280825 -0.1394138,-0.0576 -0.2690177,-0.120433 -0.3932673,-0.187663 -0.015305,0.0033 -0.028042,0.0068 -0.032475,0.02526 -0.00111,0.0046 -0.00203,0.0079 -0.00185,0.01263 9.24e-5,0.0016 0.0048,0.0026 0.0036,0.0036 -0.00286,0.0024 -0.0072,0.0027 -0.010825,0.0036 -0.05359,0.0035 -0.024929,0.0047 -0.092003,-0.0055 -0.00526,-7.92e-4 -0.00748,-0.0018 -0.00905,-0.0018 h -0.00185 c -0.00111,3.19e-4 -0.00249,-3.87e-4 -0.0036,0 -0.00767,0.0026 0.016007,0.02529 0.00545,0.02526 -0.00925,-0.0063 -0.036105,-0.0043 -0.06314,-0.0018 -0.012478,0.02053 -0.025381,0.04083 -0.037888,0.06135 0.6670492,0.550988 1.3588038,1.153732 2.134833,1.534137 0.8497345,-1.684198 1.5380652,-3.789717 2.773798,-5.116006 0.216473,1.003632 0.0073,1.917314 0.117259,2.905164 0.261296,1.580739 0.47238,1.975674 -0.07396,3.219158 h 5e-6 c 2.00937,0.05882 2.818988,0.01652 4.479316,-0.539522 -0.01601,-0.03652 -0.02911,-0.06885 -0.05051,-0.115484 0.394238,-0.329515 -0.95763,-0.474861 -1.145572,-0.541418 M 12.446875,4.9528655 c 0.866516,-0.083861 0.839106,1.6983728 0.14071,1.8188851 -0.76648,0.1322615 -0.948708,-1.7406875 -0.14071,-1.8188851 z m -0.184006,2.2826286 h 0.514134 c 0.532042,1.4547767 4.509547,1.0833349 5.808815,1.0177095 0.273349,-0.013758 1.969121,-0.592762 1.975356,-0.1425515 0.0061,0.4378143 -1.101302,0.4146706 -1.378239,0.4890058 -1.180786,0.3170862 -3.790933,-0.1178386 -4.699368,0.6225351 -2.641664,2.152957 1.108632,6.822149 2.137717,8.780451 0.564358,1.074213 0.375409,2.170996 1.53699,2.820354 l -0.855086,0.427655 c -0.900431,-1.968299 -1.896788,-4.007202 -3.355402,-5.640709 -0.268867,-0.301065 -0.999395,-1.409275 -1.428752,-1.409275 -0.437842,0 -1.15659,1.104792 -1.430556,1.409275 -1.4252389,1.584262 -2.5644692,3.6754 -3.3517944,5.640709 L 6.8815975,20.822998 c 1.1413361,-0.726177 0.9494458,-1.805657 1.5568345,-2.905163 1.096343,-1.984536 2.947592,-4.2389 2.958527,-6.665637 0.0034,-0.747187 -0.435173,-1.4926094 -0.586294,-2.2212767 C 9.9499574,9.0283622 9.1115735,8.9301929 8.2490133,8.9425034 7.6710702,8.9507075 7.1000914,8.9588579 6.540645,8.7945385 6.2531222,8.7101145 4.3502294,8.4601791 4.4768924,8.0601276 4.6109279,7.6367285 6.056175,8.2224231 6.3692669,8.2333547 7.6788094,8.2794119 11.722286,8.7135135 12.262869,7.2354941 Z m 0.08659,7.5209449 c 0,2.707892 -0.908118,4.980792 0,7.690564 l -1.026464,-0.08661 c 0.954874,-2.637653 -1.6979798,-5.406305 1.026464,-7.603951 z"
       sodipodi:nodetypes="ccccccccccccccccccccccccsscccccccccccccccccssccccsccccccccccscscccssccccccccccccccscccccsccccscccccccccccccccc" /></g></svg>
