<?xml version="1.0" encoding="UTF-8" standalone="no"?>
<!-- Created with Inkscape (http://www.inkscape.org/) -->

<svg
   width="24.0px"
   height="24.0px"
   viewBox="0 0 24.0 24.0"
   version="1.1"
   id="SVGRoot"
   sodipodi:docname="checklist.svg"
   inkscape:version="1.2.2 (732a01da63, 2022-12-09)"
   xmlns:inkscape="http://www.inkscape.org/namespaces/inkscape"
   xmlns:sodipodi="http://sodipodi.sourceforge.net/DTD/sodipodi-0.dtd"
   xmlns="http://www.w3.org/2000/svg"
   xmlns:svg="http://www.w3.org/2000/svg">
  <sodipodi:namedview
     id="namedview2322"
     pagecolor="#ffffff"
     bordercolor="#000000"
     borderopacity="0.25"
     inkscape:showpageshadow="2"
     inkscape:pageopacity="0.0"
     inkscape:pagecheckerboard="0"
     inkscape:deskcolor="#d1d1d1"
     inkscape:document-units="px"
     showgrid="true"
     inkscape:zoom="13.455443"
     inkscape:cx="9.4385594"
     inkscape:cy="6.6887428"
     inkscape:window-width="1280"
     inkscape:window-height="1001"
     inkscape:window-x="1912"
     inkscape:window-y="56"
     inkscape:window-maximized="1"
     inkscape:current-layer="layer1">
    <inkscape:grid
       type="xygrid"
       id="grid2808" />
  </sodipodi:namedview>
  <defs
     id="defs2317" />
  <g
     inkscape:label="Ebene 1"
     inkscape:groupmode="layer"
     id="layer1">
    <path
       style="fill:#000000;stroke-width:1"
       d="M 3.5282307,23.761684 C 2.8560774,23.5162 2.3325231,23.877233 2.3140096,20.454765 2.2954961,17.032297 2.1084772,5.3707164 2.2463872,3.0984153 2.3842972,0.82611427 4.2098033,1.5716201 5.2068875,1.698245 6.2039717,1.8248699 7.3500505,1.2452597 7.0523738,2.5572006 6.7546971,3.8691415 7.3486341,5.4314564 9.01168,5.5906625 c 1.663046,0.1592061 4.222758,0.070463 5.770791,0.074985 1.548033,0.00452 2.507798,-0.2814254 3.129511,-1.3659097 0.621713,-1.0844843 -0.254565,-2.8237128 1.24454,-2.5995173 5.492977,0.2959209 3.51176,0.3430852 3.722153,1.4673018 0.05985,3.2007568 -7.11e-4,16.9849507 0.02218,18.9219757 0.02289,1.937025 0.04618,1.87602 -3.16894,1.821458 -3.215123,-0.05456 -12.5687944,0.02909 -15.2706681,-0.0053 -2.7018737,-0.03439 -0.7805038,-0.103912 -0.9330162,-0.143944 -0.1525124,-0.04003 0.6721513,0.245455 -2e-6,-2.8e-5 z m 6.0312948,-4.35617 C 10.265571,18.883625 11.382275,16.685106 10.045073,16.875617 8.7078714,17.066128 8.7620636,18.40094 7.9907562,18.703738 7.2194488,19.006536 6.2588218,16.800657 5.622664,17.954915 c -0.6361578,1.154258 1.0202203,2.230944 1.8548821,2.711054 0.8346618,0.48011 1.3759343,-0.738566 2.0819794,-1.260455 z m 9.9672315,0.327001 c 0.384916,-0.478052 -0.900909,-1.443226 -1.317056,-1.345627 -0.416148,0.0976 -4.537808,-0.411896 -5.104029,0 -0.566222,0.411895 -0.264046,1.800051 1.135203,1.587419 1.399249,-0.212632 4.201709,-0.0036 5.042046,0.002 0.840336,0.0056 0.190731,-0.265835 0.243836,-0.243838 0.0531,0.022 -0.384916,0.478097 0,4.6e-5 z M 9.5595255,14.637111 c 0.7060455,-0.521888 1.8227485,-2.720404 0.4855475,-2.529896 -1.3372014,0.190508 -1.2830093,1.525321 -2.0543165,1.828121 -0.7713072,0.3028 -1.7319345,-1.903081 -2.3680926,-0.748822 -0.6361581,1.154259 1.0202203,2.230944 1.8548821,2.711055 0.8346618,0.480111 1.3759338,-0.73857 2.0819795,-1.260458 z m 9.9672315,0.327004 c 0.384916,-0.478051 -0.900908,-1.443227 -1.317056,-1.345628 -0.416148,0.0976 -4.537808,-0.411896 -5.104029,0 -0.566222,0.411896 -0.264045,1.800051 1.135203,1.587419 1.399248,-0.212632 4.144926,0.03768 5.042045,0.002 0.897119,-0.03568 0.2032,-0.203201 0.243837,-0.243837 0.04064,-0.04063 -0.384916,0.478098 0,4.6e-5 z M 9.5595255,9.8687108 C 10.26557,9.3468219 11.382275,7.1483056 10.045073,7.3388136 8.7078713,7.5293216 8.7620637,8.8641361 7.9907566,9.1669365 7.2194495,9.4697369 6.2588223,7.2638531 5.622664,8.4181121 4.9865057,9.5723711 6.6428843,10.649056 7.477546,11.129167 8.3122077,11.609278 8.8534805,10.3906 9.5595255,9.8687108 Z m 9.9672315,0.3270032 c 0.384915,-0.4780518 -0.900908,-1.4432273 -1.317056,-1.3456281 -0.416148,0.097599 -4.537808,-0.4118953 -5.104029,0 -0.566222,0.4118953 -0.264045,1.8000531 1.135203,1.5874231 1.399248,-0.21263 4.144926,0.03768 5.042045,0.002 0.897119,-0.03568 0.2032,-0.203201 0.243837,-0.243837 0.04064,-0.04063 -0.384915,0.478094 0,4.2e-5 z M 9.2611976,0.65729654 c 0.098808,-0.7291033 1.2045084,-0.51417245 1.5121474,-0.54927861 0.30764,-0.03510617 4.914834,-0.33619682 5.330639,0 0.415805,0.33619682 0.138711,2.04718507 0.2769,2.91303957 C 16.519073,3.886912 15.667995,4.1696019 15.283251,4.0816851 14.898507,3.9937681 10.342479,4.3383532 9.3422116,3.9240299 8.2171507,3.709188 8.5226269,1.8197737 9.2611976,0.65729654 Z"
       id="path3554"
       sodipodi:nodetypes="zzzzzzzzcczzzzzzzzzzzzzzzzzzzzzzzzzzzzzzzzzzzzzzzzzzzzzczzzzcc" />
  </g>
</svg>
