<?xml version="1.0" encoding="UTF-8" standalone="no"?>
<!-- Created with Inkscape (http://www.inkscape.org/) -->

<svg
   width="24.0px"
   height="24.0px"
   viewBox="0 0 24.0 24.0"
   version="1.1"
   id="SVGRoot"
   sodipodi:docname="complexity.svg"
   inkscape:version="1.2.2 (732a01da63, 2022-12-09)"
   xmlns:inkscape="http://www.inkscape.org/namespaces/inkscape"
   xmlns:sodipodi="http://sodipodi.sourceforge.net/DTD/sodipodi-0.dtd"
   xmlns="http://www.w3.org/2000/svg"
   xmlns:svg="http://www.w3.org/2000/svg">
  <sodipodi:namedview
     id="namedview51499"
     pagecolor="#ffffff"
     bordercolor="#000000"
     borderopacity="0.25"
     inkscape:showpageshadow="2"
     inkscape:pageopacity="0.0"
     inkscape:pagecheckerboard="0"
     inkscape:deskcolor="#d1d1d1"
     inkscape:document-units="px"
     showgrid="true"
     inkscape:zoom="4.7572176"
     inkscape:cx="19.969656"
     inkscape:cy="35.735174"
     inkscape:window-width="1280"
     inkscape:window-height="1001"
     inkscape:window-x="1912"
     inkscape:window-y="56"
     inkscape:window-maximized="1"
     inkscape:current-layer="layer1">
    <inkscape:grid
       type="xygrid"
       id="grid51985" />
  </sodipodi:namedview>
  <defs
     id="defs51494" />
  <g
     inkscape:label="Ebene 1"
     inkscape:groupmode="layer"
     id="layer1">
    <path
       id="path47538"
       style="fill:#000000;stroke:none;stroke-width:2;stroke-dasharray:none;stroke-opacity:1"
       d="M 2.5679753,0.68345731 V 8.7889261 c 0,7.3079079 0.019283,8.2968749 0.1542968,8.2968749 0.1341609,0 0.1565926,-0.721527 0.1796876,-5.78125 l 0.025391,-5.7812499 0.9453125,0.029297 0.9453125,0.029297 0.025391,3.4433594 c 0.025065,3.2062575 0.039817,3.4398485 0.2050781,3.4082035 0.1611633,-0.03087 0.1801022,-0.241016 0.2050781,-2.296875 l 0.027343,-2.2656257 h 0.9179688 0.9179687 v 5.6894537 c 0,4.736226 0.024155,5.70873 0.1425781,5.80664 0.094619,0.07822 0.5473731,0.108984 1.3535156,0.08984 1.1341552,-0.02693 1.2128907,-0.04186 1.2128907,-0.232422 0,-0.189204 -0.07875,-0.205562 -1.0996094,-0.232422 l -1.0976563,-0.0293 V 13.417833 7.8709573 h 3.2695319 3.269531 v 0.9160156 0.9140626 l -2.324219,0.027344 -2.3242189,0.027344 V 11.07799 c 0,1.178267 0.018346,1.324886 0.1777344,1.355469 0.1616209,0.03101 0.1796875,-0.07277 0.1796875,-1.089844 0,-1.122546 8.326e-4,-1.126172 0.261719,-1.191407 0.359233,-0.08982 6.109265,0.0088 6.269531,0.107422 0.100484,0.0619 0.122299,0.806596 0.09961,3.376954 -0.02171,2.45921 0.0025,3.328962 0.09375,3.419922 0.295718,0.294564 0.329375,-0.116252 0.302735,-3.69336 L 16.876569,9.7557229 15.726178,9.7264261 14.577741,9.6971292 V 8.7850198 7.8709573 h 2.09375 2.095703 V 11.28502 c 0,3.036337 0.01854,3.420943 0.164063,3.476563 0.251284,0.09606 0.340668,-0.154846 0.292968,-0.828125 -0.02393,-0.337719 -0.01586,-0.808889 0.01758,-1.046875 l 0.06055,-0.433594 h 0.90625 0.908204 l 0.02539,4.605469 c 0.02479,4.293263 0.03836,4.608645 0.205078,4.640625 0.161642,0.031 0.179688,-0.07484 0.179688,-1.09375 v -1.126954 h 0.970703 0.970703 v 2.087891 2.080078 c 0.13954,-0.118502 0.264694,-0.253852 0.367188,-0.40625 l 0.01758,-1.496093 0.02734,-2.265626 h 0.292969 v -0.539062 l -0.52539,0.0059 -2.119141,0.0293 -0.02539,-3.439453 -0.02734,-3.4375 -1.083984,-0.0293 -1.083984,-0.0293 -0.05469,-0.785156 c -0.03041,-0.432166 -0.03734,-1.4132193 -0.01563,-2.1796877 0.03296,-1.1640588 0.01228,-1.4198638 -0.121093,-1.5527344 -0.141585,-0.1410512 -0.93477,-0.1582031 -7,-0.1582031 H 5.2769597 V 6.4471292 5.5330667 l 3.4472656,-0.027344 c 3.1823227,-0.024743 3.4508517,-0.03964 3.4824217,-0.203125 0.03204,-0.165882 -0.259895,-0.178312 -4.5976561,-0.203125 L 2.9781315,5.0721292 V 2.9842386 0.89830111 l 1.1230469,-0.050781 1.125,-0.050781 0.00195,-0.1132813 z m 4.6738281,0 c -0.00363,0.1495089 0.4121111,0.1635798 4.5937506,0.1875 l 4.632812,0.027344 V 1.8143169 2.7303325 l -5.773438,0.050781 c -5.3828682,0.047466 -5.7746937,0.063171 -5.8066402,0.2285159 -0.032193,0.1666351 0.3144251,0.1784143 5.7714842,0.203125 l 5.808594,0.027344 v 0.9160157 0.9160156 l -1.15625,0.029297 c -1.029152,0.025672 -1.153087,0.047608 -1.123047,0.203125 0.03098,0.1603995 0.316121,0.1765689 3.480469,0.2011718 l 3.449219,0.027343 V 7.822129 c 0,2.22156 0.0048,2.289063 0.203125,2.289063 0.192011,0 0.205078,-0.06707 0.205078,-1.1191411 V 7.8709573 h 0.970703 0.96875 l 0.02734,4.6074217 c 0.02318,4.015496 0.04607,4.607422 0.179687,4.607422 0.132706,0 0.156388,-0.461475 0.179688,-3.439453 l 0.02734,-3.439453 0.292969,0.0078 V 9.7557229 h -0.24414 l -0.02734,-3.2871093 -0.02734,-3.2871094 0.298828,0.00977 v -0.4375 l -1.880859,0.027344 c -2.997901,0.043919 -3.47461,0.071367 -3.47461,0.203125 0,0.1304727 0.339779,0.1582626 2.326172,0.1816406 l 2.324219,0.027344 v 2.0761719 2.078125 l -0.791016,0.033203 c -1.226703,0.054101 -1.15039,0.1313683 -1.15039,-1.1503906 V 5.1229105 h -2.296875 -2.298828 l -0.02734,-2.3164063 -0.02539,-2.12304689 z m 11.5742186,0 0.002,0.1132813 2.53711,0.025391 c 0.852355,0.00915 1.169683,0.0036 1.544922,-0.00195 -0.225408,-0.087579 -0.469556,-0.1367189 -0.72661,-0.1367189 z M 0.48203781,1.6775979 c -0.1619537,0.278484 -0.2570164,0.5993696 -0.2675782,0.9433594 -8.929e-4,0.058441 -0.00306,0.1096182 -0.00391,0.171875 V 22.120958 c 0,0.460532 0.1544015,0.883344 0.4140625,1.220703 L 0.57578781,12.046739 c -0.028,-6.3319474 -0.050147,-9.0620277 -0.09375,-10.3691411 z M 13.196882,12.09752 c -1.112858,0 -1.328125,0.02442 -1.328125,0.152344 0,0.123415 0.216544,0.161995 1.125,0.203125 l 1.123047,0.05078 v 0.916016 0.917969 l -2.298829,0.05078 -2.2988279,0.05078 v 1.322266 1.324218 l 2.3242189,0.02734 2.324219,0.02734 v 0.914062 0.914063 h -1.126953 c -0.939462,0 -1.137134,0.02824 -1.189454,0.164062 -0.03453,0.08965 0.0016,0.202464 0.08008,0.251953 0.07845,0.04949 1.144369,0.09098 2.36914,0.0918 l 2.226563,0.002 -0.0293,0.890626 -0.0293,0.890624 -1.125,0.05078 -1.123047,0.05078 -0.0293,1.146484 -0.0293,1.144532 H 9.7183659 5.2769597 V 22.685447 21.71865 h 3.4824218 c 3.2614855,0 3.4794955,-0.01086 3.4472655,-0.177735 -0.03184,-0.164848 -0.291638,-0.180278 -3.4804686,-0.205078 L 5.2789128,21.308458 5.2535221,17.874864 C 5.2286257,14.698146 5.2119683,14.439787 5.0464909,14.408067 4.880423,14.376234 4.8687565,14.537008 4.8687565,16.667833 v 2.294922 l -1.1503906,0.0293 -1.1503906,0.02734 -0.027344,1.34961 c -0.027414,1.296911 -0.021624,1.349609 0.1777344,1.349609 0.1957915,0 0.2070312,-0.06369 0.2070312,-1.121094 v -1.119141 h 0.9746094 0.9726563 l -0.027344,2.0625 -0.029297,2.060547 h -2.09375 -1.85546869 c 0.29211909,0.265203 0.66234709,0.444846 1.07421869,0.5 l 5.6347657,-0.04102 6.9511727,-0.05078 0.05078,-1.121093 0.05078,-1.119141 2.273437,-0.02734 c 2.189266,-0.02638 2.273437,-0.03435 2.273437,-0.228515 0,-0.188798 -0.07059,-0.203125 -1.123047,-0.203125 h -1.125 V 20.394396 19.47838 h 1.052735 c 0.682477,10e-7 1.096261,-0.04188 1.175781,-0.121093 0.1451,-0.144549 0.170146,-2.294028 0.0293,-2.515625 -0.04968,-0.07815 -0.163916,-0.114478 -0.253906,-0.08008 -0.135696,0.05187 -0.164063,0.245549 -0.164063,1.134765 v 1.072266 h -2.095703 -2.09375 v -1.117188 -1.117187 l -2.326172,-0.02734 -2.3242182,-0.02734 v -0.917975 -0.916016 l 2.2988282,-0.05078 2.300782,-0.05078 v -1.324219 -1.322266 z m 6.796875,11.554688 c -3.239416,0 -3.474116,0.01359 -3.478516,0.179687 -0.0024,0.08904 0.0014,0.193611 0,0.289063 h 0.412109 v -0.05859 l 3.449219,-0.02539 2.429688,-0.01953 c 0.242734,-0.08055 0.465208,-0.204348 0.65625,-0.365234 z" />
  </g>
</svg>
