<?xml version="1.0" encoding="UTF-8" standalone="no"?>
<!-- Created with Inkscape (http://www.inkscape.org/) -->

<svg
   width="24.0px"
   height="24.0px"
   viewBox="0 0 24.0 24.0"
   version="1.1"
   id="SVGRoot"
   sodipodi:docname="complexity.svg"
   inkscape:version="1.2.2 (732a01da63, 2022-12-09)"
   inkscape:export-filename="complexity.png"
   inkscape:export-xdpi="96"
   inkscape:export-ydpi="96"
   xmlns:inkscape="http://www.inkscape.org/namespaces/inkscape"
   xmlns:sodipodi="http://sodipodi.sourceforge.net/DTD/sodipodi-0.dtd"
   xmlns="http://www.w3.org/2000/svg"
   xmlns:svg="http://www.w3.org/2000/svg">
  <sodipodi:namedview
     id="namedview51499"
     pagecolor="#ffffff"
     bordercolor="#000000"
     borderopacity="0.25"
     inkscape:showpageshadow="2"
     inkscape:pageopacity="0.0"
     inkscape:pagecheckerboard="0"
     inkscape:deskcolor="#d1d1d1"
     inkscape:document-units="px"
     showgrid="true"
     inkscape:zoom="19.02"
     inkscape:cx="12.670873"
     inkscape:cy="10.19979"
     inkscape:window-width="1280"
     inkscape:window-height="1001"
     inkscape:window-x="1912"
     inkscape:window-y="56"
     inkscape:window-maximized="1"
     inkscape:current-layer="layer1">
    <inkscape:grid
       type="xygrid"
       id="grid51985" />
  </sodipodi:namedview>
  <defs
     id="defs51494">
    <filter
       id="mask-powermask-path-effect5276_inverse"
       inkscape:label="filtermask-powermask-path-effect5276"
       style="color-interpolation-filters:sRGB"
       height="100"
       width="100"
       x="-50"
       y="-50">
      <feColorMatrix
         id="mask-powermask-path-effect5276_primitive1"
         values="1"
         type="saturate"
         result="fbSourceGraphic" />
      <feColorMatrix
         id="mask-powermask-path-effect5276_primitive2"
         values="-1 0 0 0 1 0 -1 0 0 1 0 0 -1 0 1 0 0 0 1 0 "
         in="fbSourceGraphic" />
    </filter>
    <filter
       id="mask-powermask-path-effect6016_inverse"
       inkscape:label="filtermask-powermask-path-effect6016"
       style="color-interpolation-filters:sRGB"
       height="100"
       width="100"
       x="-50"
       y="-50">
      <feColorMatrix
         id="mask-powermask-path-effect6016_primitive1"
         values="1"
         type="saturate"
         result="fbSourceGraphic" />
      <feColorMatrix
         id="mask-powermask-path-effect6016_primitive2"
         values="-1 0 0 0 1 0 -1 0 0 1 0 0 -1 0 1 0 0 0 1 0 "
         in="fbSourceGraphic" />
    </filter>
    <clipPath
       clipPathUnits="userSpaceOnUse"
       id="clipPath6022">
      <rect
         style="fill:none;stroke:none;stroke-width:2;stroke-opacity:1"
         id="rect6024"
         width="23.543467"
         height="23.893354"
         x="0.1048584"
         y="0.087741524"
         rx="0"
         ry="0" />
    </clipPath>
  </defs>
  <g
     inkscape:label="Ebene 1"
     inkscape:groupmode="layer"
     id="layer1">
    <path
       id="path47538"
       style="fill:#000000;stroke:none;stroke-width:1.97588;stroke-dasharray:none;stroke-opacity:1"
       d="m -11.720052,-22.446165 v 20.1130825 c 0,18.1339985 0.04785,20.5880425 0.382876,20.5880425 0.332909,0 0.388572,-1.790413 0.445881,-14.3457174 l 0.06301,-14.3457156 2.3457189,0.0727 2.3457181,0.0727 0.063005,8.5444241 c 0.062195,7.9560758 0.098802,8.5357125 0.5088838,8.4571879 0.3999139,-0.076603 0.4469093,-0.598062 0.5088851,-5.6995136 l 0.067852,-5.6219717 h 2.2778673 2.27786674 V 9.5069772 c 0,11.7525728 0.0599378,14.1657618 0.35379616,14.4087208 0.23478975,0.194096 1.3582634,0.270434 3.3586425,0.222933 C 6.0942672,24.071791 6.494906,23.877013 6.494906,23.404163 6.3667189,21.880009 3.92603,22.717259 1.4017686,22.439259 L 1.1965059,9.1006108 0.83729611,-4.6109496 H 8.9503848 17.063468 v 2.2730205 C 16.384536,1.7339854 8.8294021,-0.77008283 5.2208394,-0.0654893 5.0183236,2.0683536 4.6038024,5.0809614 5.3539795,6.7631184 5.8828396,6.6048332 6.6884906,6.7998215 6.720349,6.4717276 6.8130295,5.5172551 6.2440579,4.6851116 6.8341625,1.7858636 c 0,0 14.9030815,-0.1621808 15.3007685,0.082542 0.249341,0.1536002 0.210402,1.4122765 0.154102,7.7904209 -0.05385,6.1023372 0.08248,8.2669342 0.361487,8.5452182 2.487549,0.229867 1.774348,-0.371999 1.676118,-9.2391346 L 23.785596,0.06594751 C 20.598972,-0.27825575 18.081234,1.3201308 18.081234,-2.3427757 v -2.2681739 h 5.195475 5.200325 v 8.4717262 c 0,7.5344304 0.04601,8.4888034 0.407107,8.6268184 0.623543,0.238365 0.845341,-0.384238 0.726977,-2.054928 -0.0594,-0.8380197 -0.03934,-2.0071941 0.04365,-2.5977359 l 0.150264,-1.0759302 h 2.248789 2.253639 l 0.063,11.4281091 c 0.06152,10.653393 0.09518,11.435989 0.508884,11.515345 0.401105,0.07692 0.445884,-0.1857 0.445884,-2.714053 v -2.796449 h 2.408721 2.408725 v 5.180935 5.161551 c 0.346255,-0.294052 0.656815,-0.629913 0.911146,-1.008077 l 0.04365,-3.712436 0.06785,-5.621973 h 0.726977 v -1.337641 l -1.303712,0.01482 -5.258482,0.07269 -0.06301,-8.534731 -0.0678,-8.5298838 L 32.509461,5.8045028 29.81964,5.7317983 29.683937,3.783496 c -0.07551,-1.072566 -0.09271,-3.50697312 -0.03883,-5.4089041 0.08177,-2.8885201 0.03047,-3.5232802 -0.300481,-3.8529882 -0.351364,-0.3500062 -2.319594,-0.3925672 -17.369981,-0.3925672 H -4.9979204 v -2.2731032 -2.2681743 l 8.554118,-0.06786 c 7.8966824,-0.0614 8.5630164,-0.09836 8.6413544,-0.504038 0.07948,-0.411623 -0.644909,-0.442467 -11.4087208,-0.504038 l -11.4911132,-0.06785 v -5.180936 -5.176089 l 2.7867528,-0.126021 2.7915992,-0.126022 0.00482,-0.281098 z m 11.59773628,0 c -0.009,0.370995 1.02262125,0.405911 11.39903172,0.465269 l 11.495955,0.06785 v 2.273021 2.273019 l -14.3263296,0.126004 c -13.3571634,0.117781 -14.3294475,0.156753 -14.4087203,0.567044 -0.079884,0.413493 0.7802209,0.442722 14.3214836,0.504039 l 14.4135663,0.06787 v 2.273021 2.273019 l -2.86914,0.0727 c -2.553762,0.06371 -2.861298,0.118136 -2.786754,0.504039 0.07688,0.398019 0.784428,0.438142 8.636509,0.499192 l 8.558967,0.06785 v 5.6801277 c 0,5.51262648 0.01192,5.68012972 0.504038,5.68012972 0.476456,0 0.508884,-0.16642982 0.508884,-2.77706052 v -2.7819045 h 2.408722 2.403879 l 0.06782,11.4329537 c 0.05753,9.9641379 0.114337,11.4329559 0.445878,11.4329559 0.329301,0 0.388067,-1.145116 0.445884,-8.5347339 l 0.06785,-8.5347305 0.726981,0.019355 V 0.06594761 h -0.605821 l -0.06781,-8.15670271 -0.06785,-8.1567029 0.741517,0.02425 v -1.085622 l -4.667205,0.06785 c -7.439052,0.108986 -8.62197,0.177092 -8.62197,0.504039 0,0.323758 0.843135,0.392717 5.772213,0.450727 l 5.767368,0.06787 v 5.151855 5.1567034 l -1.962848,0.08239 c -3.043969,0.1342462 -2.854603,0.3259789 -2.854603,-2.8546048 v -2.7479916 h -5.699514 -5.70436 l -0.06781,-5.747979 -0.06301,-5.268174 z m 28.72051172,0 0.005,0.281099 6.295637,0.06301 c 2.115051,0.02271 2.902477,0.009 3.833604,-0.0046 -0.559331,-0.217317 -1.165168,-0.339255 -1.803024,-0.339255 z m -45.494337,2.466882 c -0.401876,0.691037 -0.637767,1.487289 -0.663975,2.340873 -0.0023,0.145018 -0.0076,0.272009 -0.0097,0.426495 v 47.961218 c 0,1.142776 0.383136,2.191949 1.027464,3.029082 L -16.663529,5.7509235 c -0.06947,-15.7122279 -0.124432,-22.4867065 -0.23263,-25.7302065 z m 26.6388,26.8914469 c 1.358557,0.4026411 4.46154,0.5443485 6.93822,0.6563355 0,1.5169639 -0.102632,2.3504367 -0.102632,3.8674006 -4.001077,0.201619 -7.6388562,0.06657 -11.6396442,-0.03713 0.056118,2.35823 0.5319619,5.000575 0.4361833,7.355686 3.6605623,-0.09055 7.4523529,-0.31831 11.0985519,-0.04836 0.154314,1.381943 0.50513,2.297151 0.1796,3.616266 -1.788549,0.119004 -4.938279,-0.547377 -5.901931,-0.276384 -0.08568,0.222459 -0.303899,1.790515 0.763187,1.913319 0.194665,0.122828 2.83966,0.225759 5.878835,0.227793 l 5.525039,0.005 -0.07269,2.210021 -0.07269,2.210012 -2.791598,0.126021 -2.786751,0.126021 -0.07269,2.844908 -0.07269,2.840064 H 6.0230792 -4.9979204 v -2.399051 -2.399034 h 8.6413553 c 8.0931181,0 8.6340951,-0.02693 8.5541171,-0.441033 -0.07902,-0.409056 -0.723676,-0.447348 -8.6365082,-0.508884 l -8.5541177,-0.06804 -0.063005,-8.520195 c -0.06178,-7.882773 -0.1031134,-8.523872 -0.5137316,-8.60258 -0.4120846,-0.07901 -0.4410339,0.319955 -0.4410339,5.60743 v 5.694667 l -2.8546036,0.07269 -2.854604,0.06785 -0.06786,3.34895 c -0.06803,3.218184 -0.05367,3.348948 0.441033,3.348948 0.485841,0 0.513732,-0.158049 0.513732,-2.781908 v -2.777034 h 2.4184163 2.4135702 l -0.067853,5.117931 -0.072698,5.113082 h -5.1954755 -4.604201 c 0.724872,0.658081 1.643563,1.103854 2.66559,1.240713 l 13.9822279,-0.101786 17.2487851,-0.12602 0.126022,-2.781903 0.126022,-2.777062 5.641352,-0.06782 c 5.432493,-0.06546 5.641356,-0.08522 5.641356,-0.567044 0,-0.468486 -0.175153,-0.504038 -2.786748,-0.504038 H 23.911613 V 26.464954 24.19193 h 2.612279 c 1.693514,5e-6 2.720288,-0.103901 2.917608,-0.300481 0.360054,-0.358686 0.422202,-5.69245 0.07269,-6.242325 -0.123268,-0.193924 -0.406745,-0.284069 -0.630047,-0.198713 -0.336721,0.12873 -0.40711,0.60931 -0.40711,2.815829 v 2.660745 l -5.251653,-0.867508 -4.784949,0.341746 c 0.0093,-2.014723 -0.369068,-3.503528 -0.384868,-5.518151 -3.659182,-0.01816 -7.291355,0.395913 -10.949446,0.311252 -0.1225143,-1.298863 -0.5172183,-2.453122 -0.2565784,-3.709685 3.6731024,-0.617247 7.3503514,0.147427 11.0543654,0.16857 0.159722,-2.239803 0.12829,-5.9531937 0.12829,-8.1968803 -1.364892,-0.013045 -7.040993,-0.082632 -8.2268892,0.06783 -0.1346356,0.5808826 0.042178,0.9747884 -0.062646,1.3880049 z M 31.520651,34.548977 c -8.038354,0 -8.620744,0.03371 -8.631661,0.445883 -0.006,0.220946 0.0033,0.48043 0,0.717287 h 1.022617 v -0.145402 l 8.558962,-0.06301 6.029081,-0.04846 c 0.602327,-0.199879 1.154376,-0.507074 1.628433,-0.906301 z"
       clip-path="url(#clipPath6022)"
       sodipodi:nodetypes="cssccccccccccscccccccccccsccccccccccsccccccccscccccccccccccccccccsccccccccccccccccccccccccccccsssccccsccccccccccssccccscccccccccccccccscccccccccccccccccccccccccscccccsccccsscccccccccccccsscccccscsccccccccccscccccccs"
       transform="matrix(1.0245647,0,0,1,-0.21288076,0)" />
  </g>
</svg>
