<?xml version="1.0" encoding="UTF-8" standalone="no"?>
<!-- Created with Inkscape (http://www.inkscape.org/) -->

<svg
   width="24.0px"
   height="24.0px"
   viewBox="0 0 24.0 24.0"
   version="1.1"
   id="SVGRoot"
   sodipodi:docname="gear.svg"
   inkscape:version="1.2.2 (732a01da63, 2022-12-09)"
   xmlns:inkscape="http://www.inkscape.org/namespaces/inkscape"
   xmlns:sodipodi="http://sodipodi.sourceforge.net/DTD/sodipodi-0.dtd"
   xmlns="http://www.w3.org/2000/svg"
   xmlns:svg="http://www.w3.org/2000/svg">
  <sodipodi:namedview
     id="namedview323"
     pagecolor="#ffffff"
     bordercolor="#000000"
     borderopacity="0.25"
     inkscape:showpageshadow="2"
     inkscape:pageopacity="0.0"
     inkscape:pagecheckerboard="0"
     inkscape:deskcolor="#d1d1d1"
     inkscape:document-units="px"
     showgrid="true"
     inkscape:zoom="9.5144352"
     inkscape:cx="10.03738"
     inkscape:cy="17.972691"
     inkscape:window-width="1280"
     inkscape:window-height="1001"
     inkscape:window-x="1912"
     inkscape:window-y="56"
     inkscape:window-maximized="1"
     inkscape:current-layer="layer1">
    <inkscape:grid
       type="xygrid"
       id="grid446" />
  </sodipodi:namedview>
  <defs
     id="defs318" />
  <g
     inkscape:label="Ebene 1"
     inkscape:groupmode="layer"
     id="layer1">
    <path
       style="fill:#000000;fill-opacity:1;stroke-width:0.999987"
       d="M 9.5367177,23.193261 C 8.387992,22.921062 8.1412578,22.657943 7.9728884,21.525579 7.7899888,20.29555 7.4742823,20.150179 6.2052962,20.711694 5.2017135,21.155774 4.8170035,21.024091 3.7499296,19.871136 2.6531393,18.68608 2.5377322,18.301851 2.9954764,17.359359 3.5681862,16.180165 3.420489,15.77214 2.35438,15.588284 1.0786452,15.36826 0.83641506,15.033618 0.60307339,13.168777 0.42309373,11.730347 0.58524204,11.360263 1.6410127,10.803485 2.6244426,10.284737 2.7236115,9.9151773 2.0786388,9.1725941 1.1156568,8.0638715 1.1053998,7.7249532 1.9858773,6.1067067 2.6839525,4.8236957 3.0048961,4.6393552 4.3266435,4.7622359 5.4246238,4.8643009 5.4321788,4.8622459 5.5407441,4.4295664 5.6008278,4.1900843 5.6024172,3.6965732 5.5443919,3.3328494 5.3965862,2.4082551 5.7229761,1.9911313 7.1170918,1.3227917 8.6501551,0.58785235 9.0275844,0.60224165 9.8351831,1.4264461 c 0.7803859,0.7964071 1.2073599,0.7937248 1.7112129,-0.010851 0.764051,-1.21990339 0.96159,-1.34321086 1.95325,-1.21927149 1.304165,0.16300115 2.45608,0.54055912 2.62371,0.85997149 0.08032,0.1530388 0.199206,0.6065194 0.264174,1.0077459 0.06498,0.4012233 0.191803,0.8206884 0.281734,0.9321418 0.222154,0.2752222 0.964094,0.2557625 1.348874,-0.035276 0.469107,-0.3549204 1.412497,-0.3063881 1.927933,0.099157 0.724851,0.5703567 1.708849,1.9226035 1.708849,2.3483642 0,0.2184328 -0.145867,0.6831742 -0.324141,1.0327134 -0.578324,1.1339922 -0.452321,1.328667 1.117924,1.7271886 0.778324,0.1975002 1.119189,0.7572865 1.314976,2.159392 0.201144,1.440487 0.04035,1.987515 -0.670782,2.282178 -0.706832,0.292859 -1.275937,0.786944 -1.275937,1.107709 0,0.155171 0.213471,0.486721 0.474398,0.736781 0.893281,0.856096 0.935413,1.226291 0.29344,2.57852 -0.311504,0.656173 -0.739338,1.356465 -0.95072,1.556203 -0.346974,0.327863 -0.489624,0.353059 -1.467828,0.259057 -0.992575,-0.09535 -1.098849,-0.07539 -1.26649,0.237931 -0.112224,0.209711 -0.142922,0.667785 -0.07935,1.184101 0.120206,0.976702 -0.111486,1.331605 -1.24793,1.911572 -1.816925,0.92723 -2.138827,0.914058 -3.233779,-0.1323 -0.701169,-0.670072 -1.137407,-0.622223 -1.536757,0.168545 -0.660495,1.307896 -1.191728,1.466571 -3.2651753,0.975262 z"
       id="path1134" />
    <path
       style="fill:#ffffff;fill-opacity:1;stroke-width:0.999987"
       d="m 11.230795,20.21015 c 0.788908,-0.873515 1.317475,-1.124289 2.369689,-1.124289 0.703543,0 1.014722,0.09475 1.58813,0.483383 0.946222,0.641383 1.118081,0.623165 1.119186,-0.118616 0.0015,-0.972534 0.280921,-1.719334 0.848319,-2.266808 0.661656,-0.638431 1.224479,-0.853845 2.230879,-0.853845 0.434602,0 0.827725,-0.06077 0.873608,-0.135052 0.04586,-0.07424 -0.111791,-0.42078 -0.350383,-0.770028 -0.337204,-0.493605 -0.445794,-0.869639 -0.48764,-1.688726 -0.06361,-1.245027 0.231302,-1.847038 1.250698,-2.552986 0.354261,-0.245335 0.624338,-0.514475 0.600143,-0.598066 -0.02403,-0.08361 -0.352904,-0.254987 -0.730478,-0.380891 -0.92047,-0.3069309 -1.724463,-1.1636699 -1.956294,-2.0846507 -0.152418,-0.6054269 -0.139122,-0.901418 0.07311,-1.631725 0.142572,-0.4906744 0.218897,-0.9325215 0.169551,-0.9818759 -0.04935,-0.049346 -0.491022,0.00662 -0.981519,0.1242765 -0.708853,0.1700951 -1.02543,0.1739712 -1.543157,0.018992 C 15.485239,5.403598 14.623586,4.6566689 14.367382,3.9698199 13.83897,2.5532297 13.965042,2.5996642 13.089274,3.4990779 12.337411,4.2712345 11.537542,4.6603201 10.715862,4.6535873 10.317922,4.6502437 9.0389926,4.0822577 8.6627369,3.7416414 8.2603239,3.3773406 8.0418914,3.6086046 8.0418914,4.398953 c 0,1.6370198 -1.3361952,2.9220577 -3.0386054,2.922263 -0.9530042,1.122e-4 -1.0537353,0.1624204 -0.5449856,0.8782685 0.9522405,1.339842 0.7824906,2.7305005 -0.4829835,3.9567565 -0.4373548,0.4238 -0.7951936,0.833352 -0.7951936,0.910121 0,0.07675 0.3247619,0.263669 0.7217132,0.415282 0.8669064,0.331197 1.6233711,1.146427 1.890096,2.036972 0.161722,0.539899 0.1505968,0.813908 -0.064153,1.583277 -0.2804164,1.004664 -0.1803285,1.305715 0.3413137,1.026454 0.4847702,-0.259523 2.0755806,-0.216107 2.6322414,0.07187 0.6138074,0.317514 1.4095894,1.411568 1.5425954,2.120776 0.05655,0.301542 0.167846,0.548253 0.247274,0.548253 0.07946,0 0.412256,-0.296542 0.739568,-0.65894 z"
       id="path1136" />
    <path
       style="fill:#000000;stroke-width:0.999987"
       d="M 11.340611,16.971564 C 10.344577,16.775032 9.183092,16.123632 8.4142784,15.330408 6.8859199,13.753515 6.551921,11.617417 7.5246594,9.640859 8.5533501,7.5506057 10.291182,6.49551 12.469882,6.6384389 c 4.227307,0.2773154 6.406976,4.8945581 3.909464,8.2815051 -1.137391,1.542457 -3.253207,2.40395 -5.038735,2.05162 z"
       id="path1138" />
    <path
       style="fill:#ffffff;fill-opacity:1;stroke-width:0.999987"
       d="M 13.321551,14.239312 C 15.042063,13.457639 15.44458,11.321281 14.133377,9.9305433 12.535361,8.2356019 9.5004227,9.4322514 9.5004227,11.75728 c 0,0.950744 0.6143743,1.973026 1.4520563,2.41615 0.849099,0.449162 1.486438,0.466881 2.369072,0.06585 z"
       id="path1140" />
  </g>
</svg>
