<?xml version="1.0" encoding="UTF-8" standalone="no"?>
<!-- Created with Inkscape (http://www.inkscape.org/) -->

<svg
   width="24.0px"
   height="24.0px"
   viewBox="0 0 24.0 24.0"
   version="1.1"
   id="SVGRoot"
   sodipodi:docname="mind.svg"
   xml:space="preserve"
   inkscape:version="1.2.2 (732a01da63, 2022-12-09)"
   xmlns:inkscape="http://www.inkscape.org/namespaces/inkscape"
   xmlns:sodipodi="http://sodipodi.sourceforge.net/DTD/sodipodi-0.dtd"
   xmlns="http://www.w3.org/2000/svg"
   xmlns:svg="http://www.w3.org/2000/svg"><sodipodi:namedview
     id="namedview187"
     pagecolor="#ffffff"
     bordercolor="#000000"
     borderopacity="0.25"
     inkscape:showpageshadow="2"
     inkscape:pageopacity="0.0"
     inkscape:pagecheckerboard="0"
     inkscape:deskcolor="#d1d1d1"
     inkscape:document-units="px"
     showgrid="true"
     inkscape:zoom="13.455443"
     inkscape:cx="-6.9117009"
     inkscape:cy="16.796176"
     inkscape:window-width="1920"
     inkscape:window-height="1057"
     inkscape:window-x="-8"
     inkscape:window-y="-8"
     inkscape:window-maximized="1"
     inkscape:current-layer="layer1"><inkscape:grid
       type="xygrid"
       id="grid310" /></sodipodi:namedview><defs
     id="defs182" /><g
     inkscape:label="Ebene 1"
     inkscape:groupmode="layer"
     id="layer1"><rect
       style="fill:#000090;fill-opacity:1;stroke:none;stroke-width:2;stroke-opacity:1"
       id="rect3412"
       width="23.707878"
       height="23.930834"
       x="0.29727745"
       y="0.074319355"
       ry="0" /><path
       style="fill:#2f2fff;fill-opacity:1;stroke:#000000;stroke-width:1;stroke-opacity:1"
       d="m 15.075819,23.322058 c 0.257376,-0.156983 0.415999,-0.859071 0.417561,-1.848178 9.63e-4,-0.618876 0.07089,-0.981532 0.247281,-1.28268 0.171031,-0.292 0.871683,-1.051478 0.999683,-1.083614 0.06319,-0.01587 0.350011,0.0044 0.63737,0.04505 0.636025,0.08996 0.881325,0.09148 1.275529,0.0079 0.429515,-0.09105 0.844825,-0.303429 1.154873,-0.590573 0.463927,-0.429654 0.606801,-0.782186 0.651166,-1.606707 0.02252,-0.418676 0.04108,-0.506188 0.133545,-0.62979 0.221715,-0.296387 0.26522,-0.432821 0.241915,-0.758657 -0.01662,-0.232445 -0.0063,-0.319064 0.04303,-0.359995 0.03571,-0.02965 0.113936,-0.150653 0.173841,-0.268908 0.123825,-0.244435 0.134461,-0.451257 0.04657,-0.905547 -0.03248,-0.167845 -0.04691,-0.312196 -0.03207,-0.320778 0.01483,-0.0086 0.15507,-0.01815 0.31164,-0.02127 0.537562,-0.0107 0.908781,-0.269917 1.071765,-0.748407 0.151893,-0.445922 -0.0041,-0.886355 -0.522594,-1.474899 C 21.594606,11.097749 21.333426,10.640552 21.121009,10.064257 20.911949,9.4970723 20.674671,8.485227 20.576132,7.7406876 20.447715,6.7704059 20.367568,6.371278 20.195846,5.8468857 19.261121,2.9924914 16.536658,1.1256889 12.863505,0.82276374 11.757358,0.73154013 10.509761,0.84313837 9.3203708,1.1397056 7.1133695,1.6900053 5.3647709,2.8027032 4.3453555,4.3054924 4.0967295,4.6720075 3.7593151,5.4315053 3.6452082,5.8814725 3.4474242,6.6614151 3.2916862,8.0669463 3.2880544,9.1047821 c -0.00212,0.6063249 0.017009,1.0146419 0.055858,1.1921029 0.1635878,0.747286 0.4798998,1.444446 1.245035,2.744084 0.5552093,0.943063 0.8444837,1.4883 1.1217365,2.114293 0.7061682,1.594418 1.0113558,3.266696 0.8866087,4.858174 -0.062182,0.793252 -0.032737,0.924426 0.2319331,1.033434 0.2398089,0.09877 7.9200643,2.363149 8.0146423,2.362968 0.04855,-9e-5 0.152925,-0.0396 0.231947,-0.0878 z"
       id="path456" /><path
       style="fill:#fdfdff;fill-opacity:1;stroke-width:1"
       d="M 13.855584,22.153021 C 13.532544,22.055471 11.993332,21.598303 10.43511,21.137098 8.8768888,20.675893 7.5944994,20.291065 7.585356,20.281926 7.576216,20.272826 7.564507,19.824066 7.559347,19.28477 7.549057,18.209674 7.488165,17.69694 7.2591792,16.757313 6.9712297,15.575715 6.4977098,14.447859 5.7366886,13.130961 4.3139555,10.669011 4.2541386,10.520004 4.2197835,9.3522218 4.1885096,8.2890769 4.4155971,6.5053644 4.6819681,5.7219467 5.1925055,4.2204149 6.6797366,2.9384284 8.6812716,2.2745653 9.7673025,1.9143534 10.774774,1.7588255 12.031559,1.7573657 c 1.666096,-0.00193 2.927123,0.2661161 4.204725,0.8937796 1.976637,0.9710886 3.100856,2.6165474 3.352396,4.9067224 0.109232,0.9945243 0.413686,2.2433257 0.751851,3.0839263 0.246453,0.612624 0.515591,1.059104 0.896156,1.486655 0.460701,0.517582 0.451296,0.543643 -0.211065,0.584789 -0.647644,0.04023 -0.863381,0.115966 -0.969885,0.340482 -0.07607,0.160371 -0.07518,0.184533 0.02706,0.728852 0.145891,0.776709 0.144406,0.81733 -0.03155,0.863577 -0.186484,0.04901 -0.374734,0.274936 -0.374734,0.449726 0,0.07486 0.054,0.232208 0.119991,0.349649 l 0.119991,0.213529 -0.137568,0.175473 c -0.192652,0.245733 -0.231989,0.404765 -0.273498,1.105665 -0.03382,0.570962 -0.04591,0.630068 -0.170138,0.83189 -0.269127,0.437191 -0.791582,0.581757 -1.667799,0.461489 -1.089696,-0.14957 -1.437808,-0.06204 -1.954569,0.491487 -0.602528,0.645392 -0.885542,1.083587 -1.050166,1.625993 -0.06219,0.20491 -0.125352,0.97799 -0.155276,1.900615 -0.0014,0.0433 -0.0165,0.07873 -0.03356,0.07873 -0.01705,0 -0.295303,-0.07981 -0.618342,-0.177368 z"
       id="path558" /><path
       style="fill:#000000;fill-opacity:1;stroke-width:0.999988"
       d="M 14.608347,9.4017224 C 14.312006,9.3315016 14.248355,9.2636244 14.20492,8.9715043 14.157737,8.6541892 14.076293,8.6166874 13.748928,8.7615434 13.49003,8.8761039 13.390785,8.8421286 13.115508,8.5447011 12.832565,8.238988 12.802793,8.1398665 12.920879,7.896729 13.068623,7.5925282 13.030521,7.4872682 12.755493,7.4398378 12.426387,7.3830794 12.363898,7.2967494 12.303702,6.8156693 c -0.04643,-0.3710777 -0.0046,-0.4665492 0.267761,-0.610183 0.253699,-0.1338235 0.279282,-0.2291601 0.112896,-0.4207277 -0.248424,-0.286021 -0.25107,-0.3734528 -0.02393,-0.7909171 0.180085,-0.3309835 0.26288,-0.3785387 0.603856,-0.3468381 0.28325,0.02633 0.285199,0.0258 0.313206,-0.085823 0.0155,-0.061778 0.01591,-0.1890934 9.42e-4,-0.2829242 -0.03813,-0.2385214 0.04607,-0.3461286 0.405715,-0.5185426 0.39549,-0.1895947 0.492857,-0.1858824 0.701196,0.026736 0.201319,0.205452 0.311467,0.2047608 0.441448,-0.00276 0.197105,-0.3147031 0.248065,-0.3465131 0.503887,-0.3145399 0.33644,0.042048 0.633604,0.1394507 0.676848,0.2218501 0.02072,0.039481 0.05139,0.1564659 0.06815,0.2599719 0.01676,0.1035055 0.04948,0.2117163 0.07268,0.2404683 0.05731,0.070997 0.248711,0.065977 0.347974,-0.00912 0.121017,-0.091563 0.364387,-0.079044 0.497356,0.025583 0.186992,0.1471372 0.440838,0.4959808 0.440838,0.6058164 0,0.056352 -0.03763,0.1762403 -0.08362,0.2664124 -0.149192,0.2925401 -0.116687,0.3427609 0.288395,0.4455693 0.200787,0.050955 0.288721,0.1953601 0.339229,0.5570656 0.05189,0.3716087 0.01041,0.512727 -0.173044,0.5887425 -0.182344,0.075553 -0.329158,0.2030107 -0.329158,0.2857596 0,0.040032 0.05507,0.1255611 0.122382,0.1900705 0.230443,0.2208498 0.241312,0.316351 0.0757,0.6651896 -0.08036,0.1692755 -0.19073,0.3499317 -0.245261,0.4014589 -0.08951,0.084582 -0.12631,0.091077 -0.378661,0.066826 -0.256058,-0.024604 -0.283474,-0.019454 -0.326721,0.061379 -0.02895,0.054104 -0.03687,0.1722712 -0.02047,0.3054673 0.03101,0.2519628 -0.02876,0.3435189 -0.321933,0.4931353 -0.468719,0.2392003 -0.551761,0.2358021 -0.83423,-0.034135 C 15.66625,8.9337995 15.553712,8.9461427 15.45069,9.1501444 15.2803,9.4875472 15.143256,9.5284807 14.608361,9.4017358 Z"
       id="path1134" /><path
       style="fill:#000000;fill-opacity:1;stroke-width:0.999988"
       d="m 15.045374,8.6321576 c 0.203518,-0.2253433 0.339874,-0.290037 0.611318,-0.290037 0.181495,0 0.261771,0.024437 0.409695,0.1247008 0.244101,0.1654595 0.288436,0.16076 0.288721,-0.030602 3.76e-4,-0.2508886 0.07247,-0.4435435 0.218844,-0.5847778 0.17069,-0.1646979 0.315883,-0.2202681 0.575508,-0.2202681 0.112116,0 0.213531,-0.015675 0.225368,-0.034838 0.01183,-0.019156 -0.02884,-0.1085502 -0.09039,-0.1986476 C 17.197448,7.2703512 17.169435,7.1733441 17.15864,6.9620406 17.14223,6.6408565 17.21831,6.4855541 17.481287,6.3034378 17.572677,6.2401438 17.64235,6.1707175 17.636108,6.149153 17.629908,6.127588 17.545068,6.083371 17.447664,6.050896 17.210207,5.9717159 17.002798,5.7507 16.942992,5.513111 c -0.03932,-0.1561844 -0.03589,-0.2325416 0.01886,-0.4209416 0.03678,-0.1265816 0.05647,-0.2405662 0.04374,-0.2532989 -0.01273,-0.01273 -0.126671,0.00167 -0.253206,0.03206 -0.182865,0.043883 -0.264533,0.044877 -0.398093,0.00486 C 16.142909,4.8124244 15.920625,4.6197325 15.854531,4.4425442 15.718215,4.077101 15.750738,4.0890801 15.524813,4.3211046 15.330852,4.5203013 15.124507,4.6206747 14.912535,4.6189375 14.809877,4.6180671 14.479947,4.4715501 14.382883,4.3836802 c -0.103812,-0.093979 -0.160162,-0.034323 -0.160162,0.1695685 0,0.4223082 -0.344703,0.753814 -0.78388,0.7538669 -0.24585,2.97e-5 -0.271836,0.041903 -0.140592,0.2265706 0.245653,0.3456438 0.201862,0.7043964 -0.124597,1.0207388 -0.112826,0.1093293 -0.205139,0.2149832 -0.205139,0.2347866 0,0.019802 0.08378,0.068016 0.186183,0.1071322 0.223639,0.085436 0.418787,0.2957483 0.487595,0.5254851 0.04172,0.1392802 0.03885,0.2099674 -0.01655,0.4084439 -0.07234,0.2591771 -0.04652,0.3368399 0.08805,0.2647985 0.125058,-0.066949 0.535445,-0.05575 0.679049,0.01854 0.158346,0.08191 0.363637,0.3641463 0.397949,0.547104 0.01459,0.077789 0.0433,0.1414345 0.06379,0.1414345 0.0205,0 0.106351,-0.076495 0.190789,-0.1699892 z"
       id="path1136" /><path
       style="fill:#000000;stroke-width:0.999988"
       d="M 15.073704,7.7966885 C 14.816753,7.7459868 14.517121,7.5779444 14.318787,7.3733134 13.924511,6.966516 13.838348,6.4154588 14.089289,5.9055585 c 0.265375,-0.5392293 0.71369,-0.8114169 1.275737,-0.7745446 1.090534,0.071541 1.652831,1.2626671 1.008539,2.1364105 -0.293417,0.3979126 -0.839242,0.6201558 -1.299861,0.5292641 z"
       id="path1138" /><path
       style="fill:#ffffff;fill-opacity:1;stroke-width:0.999988"
       d="m 15.584734,7.0918391 c 0.443847,-0.2016513 0.547686,-0.7527752 0.20943,-1.1115489 -0.412246,-0.4372499 -1.19518,-0.1285458 -1.19518,0.4712502 0,0.2452664 0.158492,0.5089886 0.374592,0.6233024 0.219045,0.1158719 0.383462,0.1204437 0.611158,0.016995 z"
       id="path1140" /><path
       style="fill:#000000;fill-opacity:1;stroke-width:1"
       d="m 9.2723551,10.816789 c -0.058521,-0.04605 -0.1064125,-0.106953 -0.1064125,-0.13534 0,-0.02839 -0.054636,-0.127057 -0.1214191,-0.219272 C 8.8776392,10.231725 8.7210053,10.229246 8.5020118,10.45357 8.236436,10.725633 8.1693657,10.734403 7.782515,10.547651 7.5993399,10.459228 7.4055134,10.350713 7.3517896,10.306518 7.2491097,10.222044 7.240822,10.162682 7.2721257,9.7354508 7.2859682,9.5464417 7.2759216,9.5101282 7.1911586,9.4413944 7.1073571,9.3734757 7.0555047,9.3665016 6.8040117,9.3892972 6.612249,9.4066882 6.4838023,9.3996761 6.4258018,9.3686027 6.3295371,9.3170751 5.9753301,8.6483066 5.9753301,8.5180979 c 0,-0.044655 0.091925,-0.1827172 0.2042728,-0.3068187 C 6.3484889,8.0247281 6.381721,7.9634153 6.3714441,7.8573452 6.3613216,7.7531889 6.3210215,7.7049395 6.1570741,7.6008896 5.7743267,7.3579759 5.7592253,7.3343917 5.790462,7.0283248 5.8263968,6.6761932 5.8919145,6.4120787 5.9640599,6.3284714 5.9960217,6.2914237 6.1161438,6.2483891 6.2309846,6.2328334 6.6819132,6.1717496 6.773371,6.0331581 6.6052139,5.6657327 6.4406426,5.3061448 6.4551684,5.2483443 6.7976067,4.9001921 7.1423783,4.5496693 7.2273527,4.5284849 7.6014188,4.6997941 c 0.3496341,0.160119 0.4630173,0.077285 0.5510841,-0.4026124 0.051574,-0.2810524 0.1821945,-0.35593 0.7172408,-0.4111573 0.3656201,-0.037744 0.4399469,-0.00734 0.5597667,0.2292274 0.2168526,0.4280787 0.3539008,0.4599711 0.6855426,0.159538 0.155725,-0.1410724 0.256359,-0.2015853 0.333624,-0.2006183 0.151772,0.0019 0.733891,0.3174331 0.830812,0.4503314 0.07249,0.099397 0.07492,0.1290176 0.02955,0.3597133 -0.04539,0.2307779 -0.04298,0.2600072 0.02937,0.3562958 0.07407,0.098587 0.09957,0.1049031 0.423762,0.1049031 0.421894,0 0.473782,0.037946 0.694091,0.5075686 0.179467,0.3825621 0.172671,0.4427422 -0.07928,0.702071 -0.282282,0.2905428 -0.229852,0.4765141 0.196466,0.6968688 0.208449,0.1077383 0.233151,0.1638377 0.208048,0.4724689 -0.04978,0.6119515 -0.1432,0.7607613 -0.508015,0.8091714 -0.215827,0.028643 -0.401559,0.1608391 -0.401559,0.2858178 0,0.035073 0.04544,0.1534739 0.100972,0.2630982 0.169374,0.3343545 0.147779,0.4122736 -0.214789,0.7749588 -0.359153,0.3592704 -0.416389,0.3760174 -0.734317,0.2148574 -0.109589,-0.05555 -0.243975,-0.1010044 -0.298634,-0.1010044 -0.142011,0 -0.25677,0.1682994 -0.288616,0.4232664 -0.03774,0.302194 -0.119065,0.366639 -0.5596145,0.443489 -0.4569147,0.0797 -0.4771192,0.07899 -0.6045472,-0.02128 z"
       id="path1126" /><path
       style="fill:#000000;fill-opacity:1;stroke-width:1"
       d="m 9.909369,9.9865208 c 0.080917,-0.2567961 0.247363,-0.4626735 0.45294,-0.5602582 0.180628,-0.08574 0.523181,-0.086082 0.727403,-7.012e-4 0.142185,0.059426 0.15629,0.058616 0.228021,-0.013138 0.07238,-0.072399 0.07305,-0.086563 0.0124,-0.2652081 -0.115813,-0.3412451 -0.05999,-0.6793778 0.14991,-0.9078065 0.0974,-0.1060043 0.451576,-0.2870874 0.562729,-0.2877139 0.107817,-6.101e-4 0.14543,-0.2070001 0.04755,-0.2609325 -0.04239,-0.023378 -0.160829,-0.1243066 -0.263198,-0.2243 -0.328912,-0.3212758 -0.34984,-0.694731 -0.06283,-1.1213516 0.107501,-0.1597975 0.125633,-0.2148716 0.09402,-0.2857154 -0.03418,-0.076614 -0.07138,-0.087752 -0.292864,-0.087752 -0.298024,0 -0.438822,-0.045958 -0.595873,-0.1944745 C 10.785219,5.6028225 10.693827,5.38355 10.684357,5.092849 10.67259,4.7326852 10.609312,4.7014142 10.309733,4.9078105 10.096876,5.0544584 10.068601,5.0626261 9.7737872,5.0626261 c -0.2806393,0 -0.3262107,-0.011392 -0.4635854,-0.116244 C 9.226413,4.8824505 9.1096894,4.7598514 9.050826,4.6739455 8.9703017,4.5564105 8.9196981,4.5201843 8.8464304,4.5275824 8.7682342,4.5354299 8.7351337,4.5785531 8.6783087,4.7463866 8.5798043,5.037342 8.4566087,5.188001 8.221294,5.3053005 7.9840611,5.423557 7.862065,5.4296578 7.540384,5.3393738 7.327936,5.2797456 7.2964348,5.2791887 7.2415356,5.3340578 c -0.054902,0.05492 -0.054623,0.081259 0.00253,0.2498713 0.1866648,0.5499855 -0.025736,0.9798857 -0.580581,1.1750942 -0.3075348,0.108194 -0.3165261,0.1915558 -0.042717,0.3960395 0.4427154,0.3306258 0.511771,0.8002442 0.1852325,1.2596787 -0.1946995,0.2739378 -0.158041,0.3277956 0.2405278,0.3533822 0.2548992,0.016366 0.335135,0.039579 0.4738192,0.1370802 0.2266145,0.1593228 0.3602249,0.4280927 0.3727945,0.7499166 0.00822,0.2088948 0.0238,0.2577606 0.092304,0.2883391 0.063645,0.028403 0.1225452,0.00949 0.257865,-0.083057 0.4833952,-0.3304004 0.9662728,-0.2530533 1.2815044,0.2052714 0.098871,0.143749 0.1407835,0.174298 0.2187012,0.159398 0.075893,-0.01452 0.1111448,-0.06526 0.1657695,-0.2386021 z"
       id="path1128" /><path
       style="fill:#000000;stroke-width:1"
       d="M 8.7736624,8.9689913 C 7.9739867,8.6838518 7.4930716,7.915028 7.6306107,7.1416373 7.6975836,6.7650608 7.8379912,6.4877284 8.1016868,6.2111807 c 0.6605815,-0.6927768 1.6920847,-0.6910706 2.3866562,0.00392 0.510029,0.510357 0.623269,1.2179984 0.30328,1.8952169 C 10.64566,8.4192336 10.321001,8.7332505 9.9847498,8.8907481 9.6324446,9.0557642 9.1114533,9.0894134 8.7736624,8.9689698 Z"
       id="path1130" /><path
       style="fill:#ffffff;fill-opacity:1;stroke-width:1"
       d="M 9.5945397,8.3763889 C 10.144329,8.2130664 10.478265,7.562928 10.283622,7.0348192 10.013075,6.3007698 9.0918283,6.0925534 8.5431217,6.6414377 8.1285848,7.0561112 8.1369168,7.6933734 8.562443,8.1190358 8.8514903,8.4081788 9.1972843,8.494401 9.5945435,8.3763889 Z"
       id="path1132" /></g></svg>
