<?xml version="1.0" encoding="UTF-8" standalone="no"?>
<!-- Created with Inkscape (http://www.inkscape.org/) -->

<svg
   width="24.0px"
   height="24.0px"
   viewBox="0 0 24.0 24.0"
   version="1.1"
   id="SVGRoot"
   sodipodi:docname="skills.svg"
   xml:space="preserve"
   inkscape:version="1.2.2 (732a01da63, 2022-12-09)"
   xmlns:inkscape="http://www.inkscape.org/namespaces/inkscape"
   xmlns:sodipodi="http://sodipodi.sourceforge.net/DTD/sodipodi-0.dtd"
   xmlns="http://www.w3.org/2000/svg"
   xmlns:svg="http://www.w3.org/2000/svg"><sodipodi:namedview
     id="namedview16965"
     pagecolor="#ffffff"
     bordercolor="#000000"
     borderopacity="0.25"
     inkscape:showpageshadow="2"
     inkscape:pageopacity="0.0"
     inkscape:pagecheckerboard="0"
     inkscape:deskcolor="#d1d1d1"
     inkscape:document-units="px"
     showgrid="true"
     inkscape:zoom="13.455443"
     inkscape:cx="12.002577"
     inkscape:cy="19.91759"
     inkscape:window-width="1280"
     inkscape:window-height="1001"
     inkscape:window-x="1912"
     inkscape:window-y="56"
     inkscape:window-maximized="1"
     inkscape:current-layer="layer1"><inkscape:grid
       type="xygrid"
       id="grid17088" /></sodipodi:namedview><defs
     id="defs16960" /><g
     inkscape:label="Ebene 1"
     inkscape:groupmode="layer"
     id="layer1"><path
       style="fill:none;fill-opacity:1;stroke:#000000;stroke-width:2;stroke-dasharray:none;stroke-opacity:1"
       d="M 21.889495,20.335156 C 16.558176,25.469392 1.240452,21.593896 1.0965727,18.990538 0.74379456,12.607357 2.4224327,10.568108 4.2131958,6.9474435 4.9378592,5.4822788 5.9666856,4.2151399 6.9471028,2.9089139 7.6464012,1.9772279 8.8352902,1.5220427 9.8994572,1.1960649 11.164552,0.80853837 12.403748,1.3396178 13.276656,2.2376237 c 1.146328,1.1792868 -0.06762,2.776395 -1.405371,3.191027 -1.045455,0.3240355 -2.325448,-1.0068981 -1.314243,-1.6502673 0.54493,-0.346706 -0.0013,1.7815861 1.091688,1.2034369 0.778391,-0.4117357 2.902074,-1.026033 2.229777,0.5221517 -0.42857,0.9869183 -1.170045,2.2266712 -2.210571,2.4793191 C 10.659649,8.2281106 9.3777779,8.9729943 8.5045894,7.7824407 8.0976417,7.2275859 8.185666,9.0832997 8.0714125,9.5976624 7.7787068,10.915406 8.6473469,12.175659 8.5044256,13.479642 c -0.2764862,1.654164 -0.9711908,2.120197 -0.9711908,2.120197 1.009886,-0.703124 2.0630338,-1.54871 3.3725232,-1.84247 1.393889,-0.312693 4.504976,-0.354166 5.108854,0.476974 0.287861,0.396195 0.03794,1.640339 0.07322,0.101461 0.05377,-2.34533 3.149402,-3.659492 5.819537,-1.977066 0.899861,0.566993 2.204536,5.836161 -0.01788,7.976418 z"
       id="path22686"
       sodipodi:nodetypes="sssssssssssssccssssss" /></g></svg>
