<?xml version="1.0" encoding="UTF-8" standalone="no"?>
<svg
   xmlns:dc="http://purl.org/dc/elements/1.1/"
   xmlns:cc="http://creativecommons.org/ns#"
   xmlns:rdf="http://www.w3.org/1999/02/22-rdf-syntax-ns#"
   xmlns:svg="http://www.w3.org/2000/svg"
   xmlns="http://www.w3.org/2000/svg"
   xmlns:sodipodi="http://sodipodi.sourceforge.net/DTD/sodipodi-0.dtd"
   xmlns:inkscape="http://www.inkscape.org/namespaces/inkscape"
   width="32"
   height="32"
   viewBox="0 0 8.4666667 8.4666667"
   version="1.1"
   id="svg8"
   inkscape:version="1.0.1 (3bc2e813f5, 2020-09-07)"
   sodipodi:docname="coin.svg">
  <defs
     id="defs2" />
  <sodipodi:namedview
     id="base"
     pagecolor="#ffffff"
     bordercolor="#666666"
     borderopacity="1.0"
     inkscape:pageopacity="0.0"
     inkscape:pageshadow="2"
     inkscape:zoom="7.9195959"
     inkscape:cx="-43.575456"
     inkscape:cy="-4.3410241"
     inkscape:document-units="px"
     inkscape:current-layer="layer1"
     inkscape:document-rotation="0"
     showgrid="false"
     inkscape:snap-others="false"
     inkscape:object-nodes="false"
     inkscape:snap-nodes="false"
     units="px"
     inkscape:window-width="1920"
     inkscape:window-height="1057"
     inkscape:window-x="1272"
     inkscape:window-y="-8"
     inkscape:window-maximized="1" />
  <metadata
     id="metadata5">
    <rdf:RDF>
      <cc:Work
         rdf:about="">
        <dc:format>image/svg+xml</dc:format>
        <dc:type
           rdf:resource="http://purl.org/dc/dcmitype/StillImage" />
        <dc:title></dc:title>
      </cc:Work>
    </rdf:RDF>
  </metadata>
  <g
     inkscape:groupmode="layer"
     id="layer2"
     inkscape:label="img"
     style="display:inline" />
  <g
     inkscape:label="Layer 1"
     inkscape:groupmode="layer"
     id="layer1">
    <path
       id="path1619"
       style="fill:#acada0;fill-opacity:1;stroke:#000000;stroke-width:0.264583;stroke-opacity:1"
       d="M 5.2905694,1.8498122 A 1.7667715,2.7010022 57.178968 0 1 3.9749913,4.7985152 1.7667715,2.7010022 57.178968 0 1 0.74890582,4.7746931 1.7667715,2.7010022 57.178968 0 1 2.0644838,1.8259903 1.7667715,2.7010022 57.178968 0 1 5.2905694,1.8498122 Z" />
    <path
       style="fill:none;stroke:#000000;stroke-width:0.264583px;stroke-linecap:butt;stroke-linejoin:miter;stroke-opacity:1"
       d="m 1.9087275,6.733159 c 0,0 2.2275591,0.5390701 4.2715275,-1.3599277"
       id="path1622" />
    <path
       style="fill:none;stroke:#000000;stroke-width:0.264583px;stroke-linecap:butt;stroke-linejoin:miter;stroke-opacity:1"
       d="m 5.1888692,7.8848093 c 0,0 3.6718002,-1.4211854 2.7171321,-4.5085887"
       id="path1624" />
    <g
       aria-label="2€"
       transform="matrix(0.41785465,0.49049037,-0.63517904,0.54828082,12.077652,0.55409231)"
       id="text1642"
       style="font-style:normal;font-variant:normal;font-weight:normal;font-stretch:normal;font-size:4.23333px;line-height:1.25;font-family:Garamond;-inkscape-font-specification:'Garamond, Normal';font-variant-ligatures:normal;font-variant-caps:normal;font-variant-numeric:normal;font-feature-settings:normal;text-align:start;letter-spacing:0px;word-spacing:0px;writing-mode:lr-tb;text-anchor:start;fill:#000000;fill-opacity:1;stroke:none;stroke-width:0.359835"
       inkscape:transform-center-x="0.58748857"
       inkscape:transform-center-y="-0.049006455">
      <path
         d="m -6.2223598,11.784551 q -0.3100584,-0.0124 -0.8309564,-0.0124 l -0.448551,0.0124 -0.2005044,-0.0062 -0.1591633,0.0062 q -0.024805,-0.0021 -0.072347,-0.01034 0.037207,-0.08682 0.095084,-0.159163 0.1715656,-0.210839 0.5022945,-0.543635 0.4630205,-0.465088 0.6097814,-0.729671 0.1467609,-0.26665 0.1467609,-0.5002275 0,-0.2191079 -0.148828,-0.3679359 -0.148828,-0.148828 -0.3658688,-0.148828 -0.1302245,0 -0.2521808,0.062012 -0.1219562,0.059945 -0.1963702,0.1529621 -0.047542,0.059945 -0.1260904,0.2397784 -0.043408,0.099219 -0.051676,0.1074869 -0.012402,0.014469 -0.028939,0.014469 -0.016536,0 -0.033073,-0.016536 -0.014469,-0.018603 -0.014469,-0.045475 0,-0.093017 0.093018,-0.297656 0.095085,-0.2046385 0.2769855,-0.3203937 0.1839679,-0.1157551 0.4258134,-0.1157551 0.3162595,0 0.5270992,0.2067056 0.2129067,0.2046385 0.2129067,0.4898922 0,0.22531 -0.1446939,0.458887 -0.1446939,0.23151 -0.6655919,0.711067 -0.1715656,0.157096 -0.2439125,0.23151 -0.072347,0.07441 -0.2914549,0.322461 0.3162595,0.0124 0.5746415,0.0124 0.055811,0 0.1219563,-0.0041 0.1219562,-0.0041 0.1426268,-0.0041 l 0.2873207,0.0062 q 0.047542,0 0.097152,-0.04548 0.049609,-0.04547 0.1343586,-0.256315 l 0.049609,-0.0021 q 0.010335,0 0.031006,0.0021 0.010335,0.02067 0.010335,0.03101 l -0.00413,0.01654 q -0.016536,0.05994 -0.028939,0.219108 -0.00827,0.09302 -0.031006,0.283187 z"
         style="stroke-width:0.359835"
         id="path1644" />
      <path
         d="m -5.4368787,10.192918 0.2294431,-0.01034 0.3679359,0.01034 h 0.1054199 l 0.1343586,0.0041 h 0.064079 l -0.00413,0.03307 q -0.00413,0.0021 -0.022738,0.04754 -0.0062,0.01654 -0.010335,0.02481 h -0.186035 l -0.6862625,0.0041 v 0.0124 q -0.00413,0.04341 -0.00413,0.161231 v 0.132291 h 0.041341 l 0.3824053,-0.0083 q 0.1364257,0 0.2067056,0.0062 0.031006,0.0041 0.084749,0.0062 0.059945,0 0.1260903,0.0041 l -0.00413,0.02894 q -0.022738,0.03927 -0.028939,0.07235 l -0.4113441,0.0083 h -0.080615 l -0.1694985,0.0041 q -0.074414,0 -0.1426269,-0.0041 v 0.0124 q 0,0.117822 0.07028,0.411344 0.072347,0.293522 0.2377114,0.446484 0.1653645,0.150895 0.3596677,0.150895 0.4278805,0 0.6015132,-0.560172 0.016536,-0.0083 0.02067,-0.0083 0.014469,0 0.03514,0.0124 -0.0062,0.08475 -0.033073,0.225309 l -0.05581,0.303857 q -0.041341,0.01033 -0.093018,0.04341 -0.028939,0.0186 -0.053743,0.02894 -0.024805,0.01033 -0.1426268,0.02894 -0.1178222,0.0186 -0.1302245,0.0186 -0.2687172,0 -0.4258135,-0.04754 -0.1550291,-0.04754 -0.3658688,-0.198437 -0.2108397,-0.150895 -0.3203936,-0.440283 -0.1074869,-0.289388 -0.1074869,-0.432015 v -0.0124 q -0.076481,0 -0.1302245,-0.0041 -0.076481,-0.0083 -0.1054198,-0.0083 -0.014469,-0.03307 -0.014469,-0.05168 l 0.00413,-0.0248 q 0.072347,-0.0083 0.084749,-0.0083 h 0.1529621 l -0.00413,-0.101285 0.012402,-0.221175 q -0.1632974,0 -0.1943032,-0.0083 -0.020671,-0.0041 -0.041341,-0.0041 -0.014469,-0.03101 -0.014469,-0.05168 l 0.00413,-0.0248 q 0.072347,-0.0083 0.084749,-0.0083 h 0.1736326 l 0.00413,-0.0124 Q -5.78001,9.8849267 -5.6084443,9.6141424 -5.4368787,9.3433581 -5.223972,9.2110666 -5.0089982,9.078775 -4.6700011,9.078775 h 0.066146 q 0.041341,0 0.1550291,0.026872 0.1157551,0.026872 0.2687172,0.1632974 0.012402,0.2294432 0.012402,0.3141925 0,0.049609 -0.00413,0.093018 l -0.041341,0.00413 q -0.018604,0 -0.03514,-0.00413 -0.051676,-0.2418455 -0.1777668,-0.37207 -0.1260904,-0.1322916 -0.2955889,-0.1322916 -0.076481,0 -0.148828,0.024805 -0.072347,0.022738 -0.1384927,0.068213 -0.064079,0.045475 -0.1219563,0.111621 -0.055811,0.064079 -0.1054198,0.148828 -0.047542,0.084749 -0.086816,0.186035 -0.039274,0.1012857 -0.066146,0.2170408 z"
         style="stroke-width:0.359835"
         id="path1646" />
    </g>
    <path
       id="path1649"
       style="fill:#acada0;fill-opacity:1;stroke:#000000;stroke-width:0.264583;stroke-miterlimit:4;stroke-dasharray:none;stroke-opacity:1"
       d="M 3.4835745,5.0662254 C 4.5235448,4.6267488 4.9669027,3.6738502 5.4406796,2.8798 5.263147,3.5131815 5.2534692,4.3148942 4.1754434,5.1272298 2.6816806,6.2528399 0.76699536,5.4982869 0.65703192,5.0365903 0.64590069,4.73674 0.52697928,4.3636662 0.59510003,4.4478333 1.4204476,5.5246061 2.7435703,5.3789405 3.4835745,5.0662254 Z"
       sodipodi:nodetypes="scsccs" />
  </g>
</svg>
