<?xml version="1.0" encoding="UTF-8" standalone="no"?>
<svg
   xmlns:dc="http://purl.org/dc/elements/1.1/"
   xmlns:cc="http://creativecommons.org/ns#"
   xmlns:rdf="http://www.w3.org/1999/02/22-rdf-syntax-ns#"
   xmlns:svg="http://www.w3.org/2000/svg"
   xmlns="http://www.w3.org/2000/svg"
   xmlns:sodipodi="http://sodipodi.sourceforge.net/DTD/sodipodi-0.dtd"
   xmlns:inkscape="http://www.inkscape.org/namespaces/inkscape"
   viewBox="0 0 48 48"
   version="1.1"
   id="svg8"
   sodipodi:docname="inventory.svg"
   inkscape:version="1.0.1 (3bc2e813f5, 2020-09-07)"
   width="48"
   height="48">
  <metadata
     id="metadata14">
    <rdf:RDF>
      <cc:Work
         rdf:about="">
        <dc:format>image/svg+xml</dc:format>
        <dc:type
           rdf:resource="http://purl.org/dc/dcmitype/StillImage" />
        <dc:title></dc:title>
      </cc:Work>
    </rdf:RDF>
  </metadata>
  <defs
     id="defs12" />
  <sodipodi:namedview
     pagecolor="#ffffff"
     bordercolor="#666666"
     borderopacity="1"
     objecttolerance="10"
     gridtolerance="10"
     guidetolerance="10"
     inkscape:pageopacity="0"
     inkscape:pageshadow="2"
     inkscape:window-width="1920"
     inkscape:window-height="1057"
     id="namedview10"
     showgrid="false"
     inkscape:zoom="13.03125"
     inkscape:cx="26.431967"
     inkscape:cy="31.337119"
     inkscape:window-x="1272"
     inkscape:window-y="-8"
     inkscape:window-maximized="1"
     inkscape:current-layer="svg8" />
  <path
     id="path894"
     style="fill:#000000;fill-opacity:1;stroke:#000000;stroke-width:1.99998;stroke-linecap:round;stroke-linejoin:round;stroke-miterlimit:4;stroke-dasharray:none;stroke-opacity:1"
     sodipodi:type="inkscape:offset"
     inkscape:radius="-0.44250333"
     inkscape:original="M 32.966797 43.185547 L 32.966797 47.066406 C 33.942602 47.026986 34.918724 46.979978 35.892578 46.927734 L 35.892578 43.191406 C 35.418811 43.463977 34.91703 43.610275 34.388672 43.599609 C 33.88254 43.589429 33.408784 43.440701 32.966797 43.185547 z "
     d="m 35.449219,43.855469 c -0.344182,0.115905 -0.699256,0.19499 -1.070313,0.1875 -0.338146,-0.0068 -0.658217,-0.0804 -0.96875,-0.185547 v 2.746094 c 0.67995,-0.0291 1.359757,-0.06232 2.039063,-0.09766 z" />
  <path
     id="path892"
     style="fill:#000000;fill-opacity:1;stroke:#000000;stroke-width:1.99998;stroke-linecap:round;stroke-linejoin:round;stroke-miterlimit:4;stroke-dasharray:none;stroke-opacity:1"
     sodipodi:type="inkscape:offset"
     inkscape:radius="-0.64078635"
     inkscape:original="M 12.691406 43.185547 L 12.691406 46.935547 C 13.667211 46.988377 14.641379 47.033135 15.615234 47.072266 L 15.615234 43.191406 C 15.141467 43.463977 14.639687 43.610275 14.111328 43.599609 C 13.605197 43.589429 13.133394 43.440701 12.691406 43.185547 z "
     d="m 14.974609,44.003906 c -0.29462,0.07741 -0.564485,0.242636 -0.876953,0.236328 -0.27661,-0.0056 -0.50671,-0.153748 -0.765625,-0.222656 v 2.306641 c 0.547827,0.02785 1.095056,0.05266 1.642578,0.07617 z" />
  <path
     id="path890"
     style="fill:#000000;fill-opacity:1;stroke:#000000;stroke-width:2.56315;stroke-linecap:round;stroke-linejoin:round;stroke-miterlimit:4;stroke-dasharray:none;stroke-opacity:1"
     sodipodi:type="inkscape:offset"
     inkscape:radius="0"
     inkscape:original="M 15.783203 47.376953 L 15.783203 52.810547 C 21.485794 52.984867 27.162776 52.978592 32.816406 52.802734 L 32.816406 47.386719 C 27.254476 48.534568 21.563853 48.548839 15.783203 47.376953 z "
     d="m 15.783203,47.376953 v 5.433594 c 5.702591,0.17432 11.379573,0.168045 17.033203,-0.0078 v -5.416015 c -5.56193,1.147849 -11.252553,1.16212 -17.033203,-0.0098 z"
     transform="matrix(0.77996774,0,0,0.78059399,5.3386739,5.6376401)" />
  <path
     id="path888"
     style="fill:#000000;fill-opacity:1;stroke:#000000;stroke-width:1.99998;stroke-linecap:round;stroke-linejoin:round;stroke-miterlimit:4;stroke-dasharray:none;stroke-opacity:1"
     sodipodi:type="inkscape:offset"
     inkscape:radius="-0.59399563"
     inkscape:original="M 42.9375 40.505859 C 42.87628 41.99531 42.774734 43.487782 42.625 44.984375 C 43.342279 44.967945 43.855993 44.935692 44.095703 44.855469 C 44.404727 44.752149 44.704486 44.482532 45.25 43.943359 L 45.25 40.505859 L 42.9375 40.505859 z "
     d="m 43.492188,41.099609 c -0.05176,1.078287 -0.128834,2.159306 -0.226563,3.242188 0.226188,-0.02055 0.619379,-0.04172 0.640625,-0.04883 a 0.59405503,0.59405503 0 0 1 0.002,0 c 0.100309,-0.03354 0.392818,-0.291758 0.748047,-0.625 v -2.56836 z" />
  <path
     id="path886"
     style="fill:#000000;fill-opacity:1;stroke:#000000;stroke-width:1.99998;stroke-linecap:round;stroke-linejoin:round;stroke-miterlimit:4;stroke-dasharray:none;stroke-opacity:1"
     sodipodi:type="inkscape:offset"
     inkscape:radius="-0.61987066"
     inkscape:original="M 3.3320312 40.503906 L 3.3320312 40.505859 L 3.3320312 43.943359 C 3.8775451 44.482436 4.1793577 44.752154 4.4882812 44.855469 C 4.7275047 44.935499 5.2403325 44.968036 5.9550781 44.984375 C 5.8045642 43.492376 5.7028222 41.997664 5.6425781 40.503906 L 3.3320312 40.503906 z "
     d="m 3.9511719,41.123047 v 2.53125 c 0.3467377,0.32357 0.6412529,0.582138 0.734375,0.613281 0.016123,0.0054 0.3968903,0.02553 0.6015625,0.04492 -0.09604,-1.06316 -0.1719392,-2.12644 -0.2226563,-3.189453 z" />
  <path
     style="fill:#000000;fill-opacity:1;stroke:#000000;stroke-width:1.99998;stroke-linecap:round;stroke-linejoin:round;stroke-miterlimit:4;stroke-dasharray:none;stroke-opacity:1"
     d="m 32.967566,38.939536 v 1.936952 c 0.598254,0.705788 1.093954,0.955855 1.455812,0.963094 0.363999,0.0073 0.84781,-0.207605 1.468676,-0.957809 v -1.942237 h -0.584896 v 0.68485 h -1.754695 v -0.68485 z"
     id="path884" />
  <path
     style="fill:#000000;fill-opacity:1;stroke:#000000;stroke-width:1.99998;stroke-linecap:round;stroke-linejoin:round;stroke-miterlimit:4;stroke-dasharray:none;stroke-opacity:1"
     d="m 12.691106,38.939536 v 1.936952 c 0.598253,0.705788 1.093953,0.955855 1.45581,0.963094 0.364002,0.0073 0.84781,-0.207605 1.468679,-0.957809 v -1.942237 h -0.584896 v 0.68485 h -1.754696 v -0.68485 z"
     id="path882" />
  <path
     style="fill:#000000;fill-opacity:1;stroke:#000000;stroke-width:1.99998;stroke-linecap:round;stroke-linejoin:round;stroke-miterlimit:4;stroke-dasharray:none;stroke-opacity:1"
     d="m 43.009483,37.374163 c -0.0027,0.45621 -0.0081,0.912808 -0.01754,1.369702 h 2.258485 v -1.369702 z"
     id="path880" />
  <path
     style="fill:#000000;fill-opacity:1;stroke:#000000;stroke-width:1.99998;stroke-linecap:round;stroke-linejoin:round;stroke-miterlimit:4;stroke-dasharray:none;stroke-opacity:1"
     d="m 3.3327404,37.374163 v 1.369702 h 2.2557561 c -0.00872,-0.456602 -0.013941,-0.9132 -0.015883,-1.369702 z"
     id="path878" />
  <path
     id="path876"
     style="fill:#000000;fill-opacity:1;stroke:#000000;stroke-width:2.56316;stroke-linecap:round;stroke-linejoin:round;stroke-miterlimit:4;stroke-dasharray:none;stroke-opacity:1"
     sodipodi:type="inkscape:offset"
     inkscape:radius="-0.39864823"
     inkscape:original="M 17.425781 39.056641 L 17.425781 42.662109 L 15.425781 42.662109 L 15.425781 44.650391 C 21.490973 46.012156 27.388725 45.987121 33.173828 44.65625 L 33.173828 42.662109 L 31.173828 42.662109 L 31.173828 39.058594 C 29.132599 39.653559 27.263208 40.000546 25.423828 40.101562 L 25.423828 41.533203 L 23.173828 41.533203 L 23.173828 40.101562 C 21.334448 40.000538 19.467008 39.651481 17.425781 39.056641 z "
     d="m 17.824219,39.5625 v 3.099609 a 0.3986881,0.3986881 0 0 1 -0.398438,0.398438 h -1.601562 v 1.253906 c 5.792655,1.2559 11.42085,1.232695 16.951172,0.0059 v -1.259765 h -1.601563 a 0.3986881,0.3986881 0 0 1 -0.398437,-0.398438 v -3.097656 c -1.728791,0.474633 -3.358923,0.775127 -4.953125,0.890625 v 1.078125 a 0.3986881,0.3986881 0 0 1 -0.398438,0.398438 h -2.25 A 0.3986881,0.3986881 0 0 1 22.775391,41.533203 V 40.455078 C 21.181236,40.339326 19.552444,40.037239 17.824219,39.5625 Z"
     transform="matrix(0.77996774,0,0,0.78059399,5.3386739,5.6376401)" />
  <path
     id="path874"
     style="fill:#000000;fill-opacity:1;stroke:#000000;stroke-width:1.99998;stroke-linecap:round;stroke-linejoin:round;stroke-miterlimit:4;stroke-dasharray:none;stroke-opacity:1"
     sodipodi:type="inkscape:offset"
     inkscape:radius="-0.37223375"
     inkscape:original="M 31.408203 34.244141 L 31.408203 37.177734 L 33.552734 37.177734 L 33.552734 34.927734 L 35.306641 34.927734 L 35.306641 37.177734 L 37.451172 37.177734 L 37.451172 34.244141 L 31.408203 34.244141 z "
     d="m 31.78125,34.617188 v 2.1875 h 1.398438 v -1.876954 a 0.37227097,0.37227097 0 0 1 0.167968,-0.310546 z m 3.728516,0 a 0.37227097,0.37227097 0 0 1 0.169922,0.310546 v 1.876954 h 1.398437 v -2.1875 z" />
  <path
     id="path872"
     style="fill:#000000;fill-opacity:1;stroke:#000000;stroke-width:1.99998;stroke-linecap:round;stroke-linejoin:round;stroke-miterlimit:4;stroke-dasharray:none;stroke-opacity:1"
     sodipodi:type="inkscape:offset"
     inkscape:radius="-0.30346307"
     inkscape:original="M 11.130859 34.244141 L 11.130859 37.177734 L 13.275391 37.177734 L 13.275391 34.927734 L 15.03125 34.927734 L 15.03125 37.177734 L 17.175781 37.177734 L 17.175781 34.244141 L 11.130859 34.244141 z "
     d="M 11.433594,34.546875 V 36.875 h 1.539062 V 34.927734 A 0.30349342,0.30349342 0 0 1 13.275391,34.625 h 1.755859 a 0.30349342,0.30349342 0 0 1 0.302734,0.302734 V 36.875 h 1.539063 v -2.328125 z" />
  <path
     id="path870"
     style="fill:#000000;fill-opacity:1;stroke:#000000;stroke-width:2.56316;stroke-linecap:round;stroke-linejoin:round;stroke-miterlimit:4;stroke-dasharray:none;stroke-opacity:1"
     sodipodi:type="inkscape:offset"
     inkscape:radius="-1.0767947"
     inkscape:original="M 24.359375 29.382812 L 24.359375 29.384766 C 21.399768 29.376866 18.424256 29.70637 15.425781 30.392578 L 15.425781 34.390625 L 17.425781 34.390625 L 17.425781 36.701172 C 19.55462 37.371213 21.390316 37.765872 23.173828 37.882812 L 23.173828 37.523438 L 25.423828 37.523438 L 25.423828 37.882812 C 27.207341 37.765994 29.044985 37.371088 31.173828 36.701172 L 31.173828 34.390625 L 33.173828 34.390625 L 33.173828 30.396484 C 30.246718 29.736344 27.310982 29.390584 24.359375 29.382812 z "
     d="m 24.357422,30.460938 c -2.601951,-0.0069 -5.219635,0.293783 -7.855469,0.83789 v 2.015625 h 0.923828 a 1.0769024,1.0769024 0 0 1 1.076172,1.076172 v 1.439453 c 1.458563,0.422473 2.783512,0.699479 4.027344,0.830078 a 1.0769024,1.0769024 0 0 1 0.644531,-0.21289 h 2.25 a 1.0769024,1.0769024 0 0 1 0.644531,0.214843 c 1.243951,-0.130499 2.570693,-0.409743 4.029297,-0.832031 v -1.439453 a 1.0769024,1.0769024 0 0 1 1.076172,-1.076172 h 0.923828 v -1.964844 c -2.57,-0.525084 -5.140086,-0.880661 -7.722656,-0.888671 a 1.0769024,1.0769024 0 0 1 -0.01758,0 z"
     transform="matrix(0.77996774,0,0,0.78059399,5.3386739,5.6376401)" />
  <path
     id="path868"
     style="fill:#000000;fill-opacity:1;stroke:#000000;stroke-width:1.99998;stroke-linecap:round;stroke-linejoin:round;stroke-miterlimit:4;stroke-dasharray:none;stroke-opacity:1"
     sodipodi:type="inkscape:offset"
     inkscape:radius="-0.58283514"
     inkscape:original="M 42.619141 27.40625 C 42.825805 30.133129 42.970078 32.867811 43.003906 35.613281 L 45.25 35.613281 L 45.25 30.046875 L 42.619141 27.40625 z "
     d="m 43.271484,28.886719 c 0.136107,2.042207 0.250403,4.088063 0.28711,6.144531 h 1.109375 v -4.744141 z" />
  <path
     id="path866"
     style="fill:#000000;fill-opacity:1;stroke:#000000;stroke-width:1.99998;stroke-linecap:round;stroke-linejoin:round;stroke-miterlimit:4;stroke-dasharray:none;stroke-opacity:1"
     sodipodi:type="inkscape:offset"
     inkscape:radius="-0.29651695"
     inkscape:original="M 5.96875 27.400391 L 3.3320312 30.046875 L 3.3320312 35.613281 L 5.5800781 35.613281 C 5.6167289 32.875152 5.7630615 30.136368 5.96875 27.400391 z "
     d="m 5.6367188,28.154297 -2.0078126,2.015625 v 5.146484 H 5.296875 c 0.038741,-2.389515 0.1706893,-4.776834 0.3398438,-7.162109 z" />
  <path
     id="path864"
     style="fill:#000000;fill-opacity:1;stroke:#000000;stroke-width:2.56316;stroke-linecap:round;stroke-linejoin:round;stroke-miterlimit:4;stroke-dasharray:none;stroke-opacity:1"
     sodipodi:type="inkscape:offset"
     inkscape:radius="-0.3227511"
     inkscape:original="M 33.173828 25.652344 C 27.218371 25.924699 21.301999 25.924942 15.425781 25.660156 L 15.425781 28.082031 C 18.419134 27.434727 21.399176 27.123089 24.363281 27.130859 C 27.317636 27.138359 30.256842 27.462774 33.173828 28.085938 L 33.173828 25.652344 z "
     d="m 32.851562,25.982422 c -5.737663,0.252529 -11.439192,0.253295 -17.103515,0.0078 v 1.712891 c 2.884206,-0.595969 5.757185,-0.902023 8.615234,-0.894531 2.846008,0.0072 5.678045,0.32391 8.488281,0.898437 z"
     transform="matrix(0.77996774,0,0,0.78059399,5.3386739,5.6376401)" />
  <path
     id="path862"
     style="fill:#000000;fill-opacity:1;stroke:#000000;stroke-width:1.99998;stroke-linecap:round;stroke-linejoin:round;stroke-miterlimit:4;stroke-dasharray:none;stroke-opacity:1"
     sodipodi:type="inkscape:offset"
     inkscape:radius="-0.38716999"
     inkscape:original="M 12.691406 25.384766 L 12.691406 32.482422 L 15.615234 32.482422 L 15.615234 25.580078 C 14.638942 25.524508 13.664871 25.459122 12.691406 25.384766 z "
     d="m 13.078125,25.798828 v 6.296875 h 2.150391 v -6.152344 c -0.717659,-0.04266 -1.434401,-0.09174 -2.150391,-0.144531 z" />
  <path
     id="path860"
     style="fill:#000000;fill-opacity:1;stroke:#000000;stroke-width:1.99998;stroke-linecap:round;stroke-linejoin:round;stroke-miterlimit:4;stroke-dasharray:none;stroke-opacity:1"
     sodipodi:type="inkscape:offset"
     inkscape:radius="-0.68416041"
     inkscape:original="M 35.892578 25.376953 C 34.916382 25.451303 33.940264 25.514742 32.966797 25.570312 L 32.966797 32.482422 L 35.892578 32.482422 L 35.892578 25.376953 z "
     d="m 35.208984,26.107422 c -0.519987,0.0368 -1.039804,0.07202 -1.558593,0.103516 v 5.58789 h 1.558593 z" />
  <path
     id="path858"
     style="fill:#000000;fill-opacity:1;stroke:#000000;stroke-width:2.56316;stroke-linecap:round;stroke-linejoin:round;stroke-miterlimit:4;stroke-dasharray:none;stroke-opacity:1"
     sodipodi:type="inkscape:offset"
     inkscape:radius="-0.46637261"
     inkscape:original="M 3.3339844 24.734375 C 2.5188431 34.079731 2.1257098 43.356399 3.3105469 52.505859 C 4.6008745 52.604869 5.8901554 52.69505 7.1777344 52.775391 L 7.1777344 42.662109 L 5.1777344 42.662109 L 5.1777344 34.390625 L 7.1777344 34.390625 L 7.1777344 25.113281 C 5.8946583 25.00023 4.6131887 24.873122 3.3339844 24.734375 z "
     d="m 3.7636719,25.244141 c -0.7749538,9.04367 -1.1238261,18.001627 -0.023437,26.824218 0.9909061,0.07465 1.9815599,0.143403 2.9707031,0.207032 V 43.128906 H 5.1777344 A 0.46641925,0.46641925 0 0 1 4.7109375,42.662109 V 34.390625 A 0.46641925,0.46641925 0 0 1 5.1777344,33.923828 H 6.7109375 V 25.535156 C 5.7273422,25.446108 4.7446787,25.348245 3.7636719,25.244141 Z"
     transform="matrix(0.77996774,0,0,0.78059399,5.3386739,5.6376401)" />
  <path
     id="path856"
     style="fill:#000000;fill-opacity:1;stroke:#000000;stroke-width:2.56316;stroke-linecap:round;stroke-linejoin:round;stroke-miterlimit:4;stroke-dasharray:none;stroke-opacity:1"
     sodipodi:type="inkscape:offset"
     inkscape:radius="-0.61496484"
     inkscape:original="M 45.275391 24.730469 C 43.989312 24.867085 42.704203 24.991842 41.421875 25.103516 L 41.421875 34.390625 L 43.421875 34.390625 L 43.421875 42.662109 L 41.421875 42.662109 L 41.421875 52.765625 C 42.711452 52.686285 44.000032 52.602241 45.287109 52.505859 C 46.467578 43.229815 46.098065 33.99248 45.275391 24.730469 z "
     d="m 44.695312,25.404297 c -0.886779,0.09148 -1.773039,0.178163 -2.658203,0.257812 v 8.113282 h 1.384766 a 0.61502634,0.61502634 0 0 1 0.615234,0.615234 v 8.271484 a 0.61502634,0.61502634 0 0 1 -0.615234,0.615235 h -1.384766 v 8.830078 c 0.896653,-0.05644 1.791293,-0.114948 2.685547,-0.179688 1.071461,-8.835957 0.740259,-17.657458 -0.02734,-26.523437 z"
     transform="matrix(0.77996774,0,0,0.78059399,5.3386739,5.6376401)" />
  <path
     id="path854"
     style="fill:#000000;fill-opacity:1;stroke:#000000;stroke-width:1.99998;stroke-linecap:round;stroke-linejoin:round;stroke-miterlimit:4;stroke-dasharray:none;stroke-opacity:1"
     sodipodi:type="inkscape:offset"
     inkscape:radius="-0.50588793"
     inkscape:original="M 6.0800781 22.947266 L 3.3320312 25.380859 L 3.3320312 27.556641 L 6.1914062 24.6875 C 6.2113952 24.459835 6.2295297 24.233522 6.25 24.005859 C 6.1897566 23.653162 6.13301 23.299768 6.0800781 22.947266 z "
     d="m 5.7265625,23.935547 -1.8886719,1.673828 v 0.722656 L 5.703125,24.460938 c 0.012382,-0.145773 0.024003,-0.291081 0.037109,-0.439454 -0.00484,-0.02858 -0.00887,-0.05735 -0.013672,-0.08594 z" />
  <path
     id="path852"
     style="fill:#000000;fill-opacity:1;stroke:#000000;stroke-width:1.99998;stroke-linecap:round;stroke-linejoin:round;stroke-miterlimit:4;stroke-dasharray:none;stroke-opacity:1"
     sodipodi:type="inkscape:offset"
     inkscape:radius="-0.4292542"
     inkscape:original="M 42.488281 22.935547 C 42.439261 23.290202 42.387407 23.645835 42.332031 24 C 42.352901 24.230112 42.374051 24.459147 42.394531 24.689453 L 45.25 27.556641 L 45.25 25.380859 L 42.488281 22.935547 z "
     d="m 42.796875,23.783203 c -0.0114,0.07552 -0.02149,0.151101 -0.0332,0.226563 0.01468,0.161533 0.03029,0.324173 0.04492,0.486328 l 2.011718,2.019531 v -0.941406 z" />
  <path
     id="path850"
     style="fill:#000000;fill-opacity:1;stroke:#000000;stroke-width:2.56316;stroke-linecap:round;stroke-linejoin:round;stroke-miterlimit:4;stroke-dasharray:none;stroke-opacity:1"
     sodipodi:type="inkscape:offset"
     inkscape:radius="-0.53627545"
     inkscape:original="M 21.425781 10.576172 L 21.425781 14.335938 L 27.173828 14.335938 L 27.173828 10.576172 L 21.425781 10.576172 z "
     d="m 21.962891,11.113281 v 2.685547 h 4.673828 v -2.685547 z"
     transform="matrix(0.77996774,0,0,0.78059399,5.3386739,5.6376401)" />
  <path
     id="path844"
     style="fill:#000000;fill-opacity:1;stroke:#000000;stroke-width:1.99998;stroke-linecap:round;stroke-linejoin:round;stroke-miterlimit:4;stroke-dasharray:none;stroke-opacity:1"
     sodipodi:type="inkscape:offset"
     inkscape:radius="-0.22031359"
     inkscape:original="M 39.283203 5.8984375 C 39.909044 12.171667 40.170878 17.621087 39.171875 21.083984 L 39.015625 21.628906 L 38.457031 21.710938 C 28.825711 23.132296 19.387056 23.061874 10.126953 21.710938 L 9.515625 21.621094 L 9.3945312 21.011719 C 8.4304245 16.169827 8.9946353 10.956047 9.328125 5.9042969 C 8.8514331 5.9389313 8.3777752 5.9758097 7.90625 6.0136719 C 7.0682866 11.743718 6.9898551 17.454859 7.9003906 23.162109 C 18.646915 24.344749 29.567786 24.357196 40.673828 23.162109 C 41.502629 17.504266 41.483561 11.78824 40.673828 6.0097656 C 40.213222 5.9706306 39.748882 5.9340494 39.283203 5.8984375 z "
     d="M 39.523438,6.1386719 C 40.130673,12.30426 40.38703,17.663558 39.382812,21.144531 l -0.15625,0.544922 a 0.22033563,0.22033563 0 0 1 -0.179687,0.158203 l -0.558594,0.08203 c -9.652926,1.424546 -19.112396,1.353865 -28.392578,0 L 9.484375,21.839844 A 0.22033563,0.22033563 0 0 1 9.2988281,21.664062 L 9.1777344,21.054688 C 8.2207093,16.24836 8.7550457,11.111844 9.0898438,6.1445312 8.7605849,6.1690347 8.4324576,6.1927135 8.1054688,6.21875 c -0.8035012,5.597194 -0.8776397,11.172392 -0.00781,16.742188 10.6177398,1.155801 21.4068208,1.168033 32.3769528,0 0.792447,-5.524078 0.773257,-11.104047 -0.002,-16.7460942 -0.314919,-0.026265 -0.6316,-0.051569 -0.949218,-0.076172 z" />
  <path
     id="path842"
     style="fill:#000000;fill-opacity:1;stroke:#000000;stroke-width:2.56316;stroke-linecap:round;stroke-linejoin:round;stroke-miterlimit:4;stroke-dasharray:none;stroke-opacity:1"
     sodipodi:type="inkscape:offset"
     inkscape:radius="-1.3892888"
     inkscape:original="M 24.298828 -0.359375 C 18.579964 -0.35235333 12.869175 -0.16306201 7.3789062 0.1875 C 6.9739609 6.5269466 6.3296224 12.843244 7.28125 18.462891 C 18.441888 20.016417 29.789887 20.09124 41.371094 18.457031 C 42.252847 14.573122 42.011707 7.843632 41.242188 0.171875 C 35.746169 -0.19071827 30.026564 -0.36639378 24.298828 -0.359375 z M 24.294922 3.2753906 C 28.360129 3.2722606 32.4274 3.6187812 36.490234 4.3261719 L 37.423828 4.4882812 L 37.423828 5.4375 C 37.423828 7.386961 37.632323 9.8381293 35.835938 11.736328 C 34.597096 13.045328 32.630275 13.909318 29.423828 14.316406 L 29.423828 16.591797 L 19.175781 16.591797 L 19.175781 14.279297 C 16.177179 13.85692 14.257067 13.004603 13.005859 11.75 C 11.152354 9.8917841 11.175781 7.4428611 11.175781 5.4375 L 11.175781 4.4863281 L 12.111328 4.3261719 C 16.166286 3.6318159 20.22984 3.2783986 24.294922 3.2753906 z "
     d="M 24.300781,1.0292969 C 19.02531,1.0357741 13.783917,1.233566 8.6914062,1.5351562 8.3185624,7.0806518 7.959752,12.445543 8.5976562,17.205078 18.920009,18.547658 29.398388,18.605404 40.080078,17.197266 40.666491,13.773783 40.546457,8.1096239 39.935547,1.5195312 34.837743,1.2099528 29.588132,1.0228177 24.300781,1.0292969 Z m -0.0078,0.8574219 c 4.144869,-0.00319 8.293882,0.3491963 12.435547,1.0703124 l 0.933593,0.1621094 A 1.3894277,1.3894277 0 0 1 38.8125,4.4882812 V 5.4375 c 0,1.8504046 0.276895,4.883048 -1.966797,7.253906 -1.318076,1.392722 -3.377346,2.209084 -6.033203,2.707032 v 1.193359 a 1.3894277,1.3894277 0 0 1 -1.388672,1.388672 H 19.175781 A 1.3894277,1.3894277 0 0 1 17.787109,16.591797 V 15.347656 C 15.302091,14.840757 13.329008,14.04154 12.021484,12.730469 9.7328412,10.436009 9.7871094,7.4320411 9.7871094,5.4375 V 4.4863281 A 1.3894277,1.3894277 0 0 1 10.941406,3.1171875 L 11.876953,2.9570312 C 16.006803,2.249851 20.148049,1.8897858 24.292969,1.8867188 Z"
     transform="matrix(0.77996774,0,0,0.78059399,5.3386739,5.6376401)" />
  <path
     id="path848"
     style="fill:#000000;fill-opacity:1;stroke:#000000;stroke-width:2.56316;stroke-linecap:round;stroke-linejoin:round;stroke-miterlimit:4;stroke-dasharray:none;stroke-opacity:1"
     sodipodi:type="inkscape:offset"
     inkscape:radius="-0.80836982"
     inkscape:original="M 24.296875 5.5292969 C 20.677357 5.5320469 17.059049 5.8357259 13.441406 6.40625 C 13.474526 7.9453652 13.64483 9.2007484 14.595703 10.154297 C 15.334855 10.895529 16.715482 11.585611 19.175781 11.982422 L 19.175781 8.3203125 L 29.423828 8.3203125 L 29.423828 12.019531 C 32.094347 11.629112 33.50592 10.920491 34.205078 10.181641 C 35.084086 9.2529073 35.167628 7.988229 35.171875 6.40625 C 31.547358 5.8259495 27.921517 5.5265396 24.296875 5.5292969 z "
     d="m 24.296875,6.3378906 c -3.321677,0.00252 -6.645161,0.285826 -9.970703,0.7753906 0.0771,1.0486134 0.24898,1.876218 0.841797,2.4707032 0.465093,0.4664016 1.554077,0.9644036 3.199219,1.3496096 V 8.3203125 a 0.80845065,0.80845065 0 0 1 0.808593,-0.8085937 h 10.248047 a 0.80845065,0.80845065 0 0 1 0.808594,0.8085937 V 10.986328 C 32.055916,10.597 33.193457,10.074739 33.617188,9.6269531 a 0.80845065,0.80845065 0 0 1 0,-0.00195 C 34.143317,9.0691074 34.270705,8.2223904 34.314453,7.1171875 30.973927,6.6176437 27.633367,6.3353525 24.296875,6.3378906 Z"
     transform="matrix(0.77996774,0,0,0.78059399,5.3386739,5.6376401)" />
  <path
     id="path4"
     style="fill:#000000;fill-opacity:1;stroke:#000000;stroke-width:2.56316;stroke-linecap:round;stroke-linejoin:round;stroke-miterlimit:4;stroke-dasharray:none;stroke-opacity:1"
     sodipodi:type="inkscape:offset"
     inkscape:radius="-0.42423213"
     inkscape:original="M 15.605469 -5.7167969 L 13.957031 -2.4121094 C 14.806915 -2.4446984 15.660238 -2.4732309 16.515625 -2.4980469 L 16.996094 -3.4609375 L 31.603516 -3.4609375 L 32.074219 -2.515625 C 32.928856 -2.492189 33.781223 -2.4651798 34.630859 -2.4335938 L 32.994141 -5.7167969 L 15.605469 -5.7167969 z "
     d="m 15.867188,-5.2929688 -1.212891,2.4335938 c 0.531213,-0.018935 1.062507,-0.03875 1.595703,-0.054687 l 0.367188,-0.7363281 a 0.42427455,0.42427455 0 0 1 0.378906,-0.234375 h 14.607422 a 0.42427455,0.42427455 0 0 1 0.378906,0.234375 l 0.357422,0.71875 c 0.533083,0.015074 1.064393,0.032602 1.595703,0.050781 l -1.203125,-2.4121094 z"
     transform="matrix(0.77996774,0,0,0.78059399,5.3386739,5.6376401)" />
</svg>
